<svg width="16" height="16" viewBox="0 0 16 16" fill="none" xmlns="http://www.w3.org/2000/svg">
    <path fill-rule="evenodd" clip-rule="evenodd" d="M4.66667 2C3.19391 2 2 3.19391 2 4.66667C2 6.13943 3.19391 7.33333 4.66667 7.33333H11.3333C12.8061 7.33333 14 6.13943 14 4.66667C14 3.19391 12.8061 2 11.3333 2H4.66667ZM6 4.66667C6 5.40305 5.40305 6 4.66667 6C3.93029 6 3.33333 5.40305 3.33333 4.66667C3.33333 3.93029 3.93029 3.33333 4.66667 3.33333C5.40305 3.33333 6 3.93029 6 4.66667Z" fill="black"/>
    <path opacity="0.3" fill-rule="evenodd" clip-rule="evenodd" d="M4.66667 8.6665C3.19391 8.6665 2 9.86041 2 11.3332C2 12.8059 3.19391 13.9998 4.66667 13.9998H11.3333C12.8061 13.9998 14 12.8059 14 11.3332C14 9.86041 12.8061 8.6665 11.3333 8.6665H4.66667ZM12.6667 11.3332C12.6667 12.0696 12.0697 12.6665 11.3333 12.6665C10.597 12.6665 10 12.0696 10 11.3332C10 10.5968 10.597 9.99984 11.3333 9.99984C12.0697 9.99984 12.6667 10.5968 12.6667 11.3332Z" fill="black"/>
</svg>
