<svg width="25" height="25" viewBox="0 0 25 25" fill="none" xmlns="http://www.w3.org/2000/svg">
    <path fill-rule="evenodd" clip-rule="evenodd" d="M6.75213 7.97557C7.1572 8.35409 7.17651 8.98696 6.79528 9.38913L3.4162 12.9538L6.79528 16.5184C7.17651 16.9206 7.1572 17.5535 6.75213 17.932C6.34707 18.3105 5.70964 18.2913 5.3284 17.8891L1.29963 13.6391C0.934627 13.2541 0.934627 12.6535 1.29963 12.2684L5.3284 8.0184C5.70964 7.61623 6.34707 7.59705 6.75213 7.97557ZM17.4579 7.97557C17.0528 8.35409 17.0335 8.98696 17.4147 9.38914L20.7938 12.9538L17.4147 16.5184C17.0335 16.9206 17.0528 17.5535 17.4579 17.932C17.8629 18.3105 18.5003 18.2913 18.8816 17.8891L22.9104 13.6391C23.2754 13.2541 23.2754 12.6535 22.9104 12.2684L18.8816 8.01841C18.5003 7.61623 17.8629 7.59706 17.4579 7.97557Z" fill="#F7AAB2"/>
    <rect width="2.01342" height="16.0077" rx="1" transform="matrix(0.966386 0.257094 -0.260554 0.965459 13.2173 4.71753)" fill="black"/>
</svg>