<svg width="25" height="25" viewBox="0 0 25 25" fill="none" xmlns="http://www.w3.org/2000/svg">
    <path fill-rule="evenodd" clip-rule="evenodd" d="M4.75171 4.70395L12.0772 3.34023C12.5611 3.25015 13.0574 3.25015 13.5413 3.34023L20.8668 4.70395V10.0941C20.8668 15.4476 18.0999 20.4209 13.551 23.2436V23.2436C13.0967 23.5256 12.5218 23.5256 12.0674 23.2436V23.2436C7.51859 20.4209 4.75171 15.4476 4.75171 10.0941L4.75171 4.70395Z" stroke="#F7AAB2" stroke-width="2" stroke-linejoin="round"/>
    <path fill-rule="evenodd" clip-rule="evenodd" d="M10.2911 11.2217C10.2911 9.83107 11.4185 8.70374 12.8091 8.70374C14.1998 8.70374 15.3271 9.83107 15.3271 11.2217V11.967C15.9289 12.3118 16.3344 12.9603 16.3344 13.7036V14.7036C16.3344 15.8082 15.4389 16.7036 14.3344 16.7036H11.2839C10.1794 16.7036 9.28394 15.8082 9.28394 14.7036V13.7036C9.28394 12.9604 9.68937 12.3118 10.2911 11.967V11.2217ZM12.8091 9.70358C11.9747 9.70358 11.2983 10.38 11.2983 11.2144V11.7036H14.3199V11.2144C14.3199 10.38 13.6435 9.70358 12.8091 9.70358Z" fill="black"/>
</svg>