<svg width="25" height="25" viewBox="0 0 25 25" fill="none" xmlns="http://www.w3.org/2000/svg">
    <path fill-rule="evenodd" clip-rule="evenodd" d="M10.7726 8.66514C10.7928 8.40476 11.01 8.20377 11.2711 8.20377H11.3634C11.6201 8.20377 11.8352 8.39821 11.8609 8.65366L12.3192 13.2038L15.5911 15.0601C15.7476 15.1489 15.8443 15.315 15.8443 15.495V15.5504C15.8443 15.8797 15.5315 16.1191 15.2137 16.033L10.7046 14.812C10.4727 14.7492 10.3182 14.5303 10.3368 14.2908L10.7726 8.66514Z" fill="black"/>
    <path opacity="0.3" fill-rule="evenodd" clip-rule="evenodd" d="M6.47603 2.11917C6.2109 1.80547 5.69945 1.925 5.60383 2.32302L4.46576 7.06017C4.38777 7.38483 4.64717 7.6927 4.9828 7.67382L9.891 7.39767C10.3032 7.37448 10.5117 6.8944 10.2462 6.58016L9.04444 5.15823C9.92436 4.8597 10.8574 4.70377 11.8155 4.70377C16.5437 4.70377 20.3766 8.50935 20.3766 13.2038C20.3766 17.8982 16.5437 21.7038 11.8155 21.7038C7.08732 21.7038 3.25437 17.8982 3.25437 13.2038C3.25437 12.4157 3.36186 11.6438 3.57145 10.902L1.63192 10.3618C1.37656 11.2657 1.23999 12.2189 1.23999 13.2038C1.23999 19.0028 5.97481 23.7038 11.8155 23.7038C17.6562 23.7038 22.391 19.0028 22.391 13.2038C22.391 7.40478 17.6562 2.70377 11.8155 2.70377C10.3464 2.70377 8.94719 3.0012 7.67574 3.53873L6.47603 2.11917Z" fill="#FF0000"/>
</svg>