<svg xmlns="http://www.w3.org/2000/svg" width="181" height="41" viewBox="0 0 181 41">
  <g id="download-assets-sm-2" transform="translate(-8475 -1435)">
    <g id="Button">
      <g id="Rectangle">
        <path id="Path_1" data-name="Path 1" d="M0,4.8A7.453,7.453,0,0,1,.327,1.638,3,3,0,0,1,1.638.327,7.453,7.453,0,0,1,4.8,0H176.2a7.454,7.454,0,0,1,3.162.327,3,3,0,0,1,1.311,1.311A7.453,7.453,0,0,1,181,4.8V36.2a7.453,7.453,0,0,1-.327,3.162,3,3,0,0,1-1.311,1.311A7.454,7.454,0,0,1,176.2,41H4.8a7.453,7.453,0,0,1-3.162-.327A3,3,0,0,1,.327,39.362,7.453,7.453,0,0,1,0,36.2Z" transform="translate(8475 1435)" fill="#ff813f" fill-rule="evenodd"/>
      </g>
      <g id="Group">
        <g id="Combined_Shape" data-name="Combined Shape">
          <path id="Path_2" data-name="Path 2" d="M1.345.3a.628.628,0,0,0-.09.324v.627H.627A.627.627,0,0,0,0,1.882v.209a.627.627,0,0,0,.627.627h.628v.627a.627.627,0,0,0,.627.627h.209a.628.628,0,0,0,.628-.627V2.718h.626a.628.628,0,0,0,.628-.627V1.882a.628.628,0,0,0-.628-.627H2.719V.627A.628.628,0,0,0,2.091,0H1.882A.626.626,0,0,0,1.345.3Z" transform="translate(8518.24 1442.57)" fill="#fff" fill-rule="evenodd"/>
        </g>
        <g id="Logo">
          <g id="Fill_1" data-name="Fill 1">
            <path id="Path_3" data-name="Path 3" d="M6.575.04,0,0,3.229,20.512H11.1L14.324,0Z" transform="translate(8500.85 1446.99)" fill="#ff9100" fill-rule="evenodd"/>
          </g>
          <g id="Fill_2" data-name="Fill 2">
            <path id="Path_4" data-name="Path 4" d="M6.575.04,0,0,3.229,20.512H9.451L12.68,0Z" transform="translate(8500.85 1446.99)" fill="#fd0" fill-rule="evenodd"/>
          </g>
          <g id="Fill_3" data-name="Fill 3">
            <path id="Path_5" data-name="Path 5" d="M0,1.892H16.965V0H0Z" transform="translate(8498.97 1445.1)" fill="#fff" fill-rule="evenodd"/>
          </g>
          <g id="Stroke_4" data-name="Stroke 4">
            <path id="Path_6" data-name="Path 6" d="M0,1.892H-.44v.44H0Zm16.965,0v.44h.44v-.44Zm0-1.892h.44V-.44h-.44ZM0,0V-.44H-.44V0ZM0,2.332H16.965V1.451H0Zm17.406-.44V0h-.881V1.892ZM16.965-.44H0V.44H16.965ZM-.44,0V1.892H.44V0Z" transform="translate(8498.97 1445.1)"/>
          </g>
          <g id="Fill_6" data-name="Fill 6">
            <path id="Path_7" data-name="Path 7" d="M11.741,0H1.233L0,2.837H12.974Z" transform="translate(8500.91 1442.03)" fill="#fff" fill-rule="evenodd"/>
          </g>
          <g id="Group_11" data-name="Group 11">
            <g id="Stroke_7" data-name="Stroke 7">
              <path id="Path_8" data-name="Path 8" d="M11.741,0l.4-.175L12.03-.44h-.289ZM1.233,0V-.44H.944L.829-.175ZM0,2.837l-.4-.175-.268.616H0Zm12.974,0v.44h.671l-.268-.616ZM11.741-.44H7.69V.44h4.051ZM7.69-.44H5.283V.44H7.69Zm-2.407,0H1.233V.44H5.283ZM.829-.175-.4,2.662.4,3.013,1.637.175ZM0,3.278H5.283V2.4H0Zm5.283,0H7.69V2.4H5.283Zm2.407,0h5.283V2.4H7.69Zm5.687-.616L12.145-.175l-.808.351L12.57,3.013Z" transform="translate(8500.91 1442.03)" fill="#050505"/>
            </g>
            <g id="Stroke_9" data-name="Stroke 9">
              <path id="Path_9" data-name="Path 9" d="M7.749.04l0,.44h0ZM0,0,0-.44l-.518,0,.08.511ZM3.229,20.512l-.435.068.059.372h.376Zm9.04,0v.44h.376l.058-.372ZM15.5,0l.435.068.08-.511-.518,0ZM7.751-.4,0-.44,0,.44,7.747.48ZM-.435.068,2.794,20.58l.87-.137L.435-.068ZM3.229,20.952h.7v-.881h-.7Zm.7,0h7.632v-.881H3.933Zm7.632,0h.7v-.881h-.7ZM12.7,20.58,15.933.068l-.87-.137L11.834,20.443ZM15.5-.44,7.747-.4l0,.881L15.5.44Z" transform="translate(8499.68 1446.99)"/>
            </g>
          </g>
          <g id="Fill_12" data-name="Fill 12">
            <path id="Path_10" data-name="Path 10" d="M16.026,0H0L1.447,8.157l6.566-.071,6.566.071Z" transform="translate(8499.38 1452.79)" fill="#fff" fill-rule="evenodd"/>
          </g>
          <g id="Stroke_13" data-name="Stroke 13">
            <path id="Path_11" data-name="Path 11" d="M16.026,0l.434.077.092-.517h-.525ZM0,0V-.44H-.525l.092.517ZM1.447,8.157l-.434.077.065.367.373,0Zm6.566-.071,0-.44h-.01Zm6.566.071,0,.44.373,0,.065-.367Zm1.447-8.6H8.291V.44h7.735Zm-7.735,0H7.735V.44h.556Zm-.556,0H0V.44H7.735ZM-.434.077,1.013,8.234l.867-.154L.434-.077ZM1.452,8.6l6.566-.071-.01-.881-6.566.071Zm6.557-.071,6.566.071.009-.881L8.018,7.646Zm7-.292L16.46.077l-.867-.154L14.146,8.081Z" transform="translate(8499.38 1452.79)"/>
          </g>
        </g>
        <g id="Oval" opacity="0.1">
          <g id="Group_1" data-name="Group 1">
            <path id="Path_12" data-name="Path 12" d="M2.412,6.242a3.83,3.83,0,0,0,3.83-3.83H3.4a.993.993,0,0,1-.993.993Zm3.83-3.83a3.83,3.83,0,0,0-3.83-3.83V1.419a.993.993,0,0,1,.993.993Zm-3.83-3.83a3.83,3.83,0,0,0-3.83,3.83H1.419a.993.993,0,0,1,.993-.993Zm-3.83,3.83a3.83,3.83,0,0,0,3.83,3.83V3.4a.993.993,0,0,1-.993-.993Z" transform="translate(8491 1447.39)"/>
          </g>
        </g>
        <g id="Oval-2" data-name="Oval" opacity="0.1">
          <path id="Path_13" data-name="Path 13" d="M1.135,2.27A1.135,1.135,0,1,0,0,1.135,1.135,1.135,0,0,0,1.135,2.27Z" transform="translate(8517.39 1455.9)" fill-rule="evenodd"/>
        </g>
        <g id="Oval-3" data-name="Oval">
          <path id="Path_14" data-name="Path 14" d="M1.135,2.27A1.135,1.135,0,1,0,0,1.135,1.135,1.135,0,0,0,1.135,2.27Z" transform="translate(8496.11 1462.43)" fill="#fff" fill-rule="evenodd"/>
        </g>
      </g>
      <g id="Page_1" data-name="Page 1">
        <g id="Fill_4" data-name="Fill 4">
          <path id="Path_15" data-name="Path 15" d="M15.224,12.77q-.089.554-.251,1.167a7.867,7.867,0,0,1-.381,1.116,3.2,3.2,0,0,1-.486.814.617.617,0,0,1-.575.26.361.361,0,0,1-.308-.319,1.909,1.909,0,0,1,0-.705,5.317,5.317,0,0,1,.251-.948,8.381,8.381,0,0,1,.454-1.049,8.146,8.146,0,0,1,.608-1,4.393,4.393,0,0,1,.713-.8.926.926,0,0,1,.073.5A7.135,7.135,0,0,1,15.224,12.77Zm5.493-7.285a.8.8,0,0,0-.535-.285.762.762,0,0,0-.64.369,3.949,3.949,0,0,1-.535.772,6.969,6.969,0,0,1-.673.671,7.7,7.7,0,0,1-.664.52q-.316.218-.494.319A10.826,10.826,0,0,1,17.1,6.693q-.009-.621.024-1.259a16.425,16.425,0,0,1,.2-1.83,12.311,12.311,0,0,1,.446-1.813,1.283,1.283,0,0,0-.211-.764.9.9,0,0,0-.51-.369.865.865,0,0,0-.616.084,1.322,1.322,0,0,0-.543.579q-.194.554-.445,1.242t-.567,1.4a14.341,14.341,0,0,1-.7,1.385,7.284,7.284,0,0,1-.851,1.192,3.706,3.706,0,0,1-1,.814,2.179,2.179,0,0,1-1.175.26.647.647,0,0,1-.421-.453,3.247,3.247,0,0,1-.154-.923,7.991,7.991,0,0,1,.049-1.217q.073-.663.194-1.318t.267-1.242q.146-.587.275-.99a.893.893,0,0,0,0-.814.945.945,0,0,0-.534-.437,1.154,1.154,0,0,0-.713.009.835.835,0,0,0-.535.52,13.387,13.387,0,0,0-.5,1.544A16.459,16.459,0,0,0,8.71,4.066a13.789,13.789,0,0,0-.154,1.813c0,.039,0,.076,0,.115a7.566,7.566,0,0,1-.673,1.471q-.413.638-.932.554a.591.591,0,0,1-.3-.47A3.844,3.844,0,0,1,6.6,6.642q.025-.537.122-1.217t.243-1.41q.146-.731.308-1.469t.292-1.393a1.256,1.256,0,0,0-.332-.9A1.024,1.024,0,0,0,6.352.012a1.308,1.308,0,0,0-.575.437,2.211,2.211,0,0,0-.3.688q-.065.219-.194.873t-.332,1.5q-.2.848-.478,1.771a13.028,13.028,0,0,1-.616,1.67,4.76,4.76,0,0,1-.745,1.2.928.928,0,0,1-.875.369q-.259-.05-.332-.554A6.083,6.083,0,0,1,1.88,6.727q.049-.739.194-1.62t.3-1.67q.154-.789.284-1.393t.178-.806A1.315,1.315,0,0,0,2.625.457a.9.9,0,0,0-.51-.369A.865.865,0,0,0,1.5.171,1.322,1.322,0,0,0,.956.75Q.875,1.2.745,1.8T.494,3.025q-.121.63-.227,1.234T.113,5.317q-.032.352-.073.864T0,7.264A7.9,7.9,0,0,0,.081,8.4,3.846,3.846,0,0,0,.373,9.429a2.022,2.022,0,0,0,.592.772,1.665,1.665,0,0,0,.964.336,3.2,3.2,0,0,0,1.045-.092,2.5,2.5,0,0,0,.81-.395,3.609,3.609,0,0,0,.664-.638q.3-.369.591-.806a2.525,2.525,0,0,0,.713.991,1.791,1.791,0,0,0,1.912.277,2.322,2.322,0,0,0,.907-.713,5.221,5.221,0,0,0,.5-.7,3.072,3.072,0,0,0,.218.346,2.006,2.006,0,0,0,1.078.739,3.09,3.09,0,0,0,1.426.067,4.435,4.435,0,0,0,1.329-.487A6.268,6.268,0,0,0,14.3,8.279a7.565,7.565,0,0,0,.948-1.032q-.016.386-.016.73t-.016.747a9.312,9.312,0,0,0-1.531,1.41,11.214,11.214,0,0,0-1.264,1.754,9.559,9.559,0,0,0-.85,1.888,5.669,5.669,0,0,0-.3,1.788,2.821,2.821,0,0,0,.381,1.452,2.082,2.082,0,0,0,1.215.89,2.208,2.208,0,0,0,1.54.017,2.832,2.832,0,0,0,1.158-.89,5.228,5.228,0,0,0,.81-1.5,12.561,12.561,0,0,0,.5-1.838,13.6,13.6,0,0,0,.235-1.88,13.886,13.886,0,0,0,0-1.645A6.991,6.991,0,0,0,19.4,8.64a9.76,9.76,0,0,0,1.475-1.947.79.79,0,0,0,.122-.6A1.19,1.19,0,0,0,20.717,5.484Z" transform="translate(8535.01 1451.77)" fill="#fff" fill-rule="evenodd"/>
        </g>
        <g id="Fill_1-2" data-name="Fill 1">
          <path id="Path_16" data-name="Path 16" d="M7.681,10.841a3.159,3.159,0,0,1-.8,1.007,4.28,4.28,0,0,1-1.191.7,5.815,5.815,0,0,1-1.369.361,4.44,4.44,0,0,1-1.337-.017,2.52,2.52,0,0,1-1.1-.445l.34-3.676Q2.69,8.6,3.4,8.424A10.451,10.451,0,0,1,4.87,8.172,6.046,6.046,0,0,1,6.3,8.189a1.929,1.929,0,0,1,1.061.445,2.227,2.227,0,0,1,.357.436,1.217,1.217,0,0,1,.178.487A2.23,2.23,0,0,1,7.681,10.841ZM2.738,3.01a3.936,3.936,0,0,1,.818-.386,4.935,4.935,0,0,1,.98-.235,4.129,4.129,0,0,1,.98-.017,1.966,1.966,0,0,1,.843.277A1.364,1.364,0,0,1,6.9,3.3,2.139,2.139,0,0,1,7,4.387a1.549,1.549,0,0,1-.4.881,2.836,2.836,0,0,1-.81.6,5.115,5.115,0,0,1-1.013.386,8.283,8.283,0,0,1-1.029.21q-.494.067-.859.084t-.478.017ZM9.431,8.466a3.448,3.448,0,0,0-.7-1.032A2.6,2.6,0,0,0,7.7,6.787a2.337,2.337,0,0,0,.51-.688,6.189,6.189,0,0,0,.429-1.024A5.808,5.808,0,0,0,8.88,3.959a2.532,2.532,0,0,0-.049-.965,3.379,3.379,0,0,0-.867-1.578A3.184,3.184,0,0,0,6.587.626,4.325,4.325,0,0,0,4.853.534a8.864,8.864,0,0,0-1.936.5A1.012,1.012,0,0,1,2.933.853,1.145,1.145,0,0,0,2.949.66.539.539,0,0,0,2.706.224,1.1,1.1,0,0,0,2.147.005a.987.987,0,0,0-.616.143.965.965,0,0,0-.413.646Q.988,2.305.859,3.933T.583,7.224q-.146,1.662-.292,3.3T0,13.669a1.379,1.379,0,0,0,.243.705.751.751,0,0,0,.454.3.835.835,0,0,0,.543-.092,1.245,1.245,0,0,0,.494-.5,3.99,3.99,0,0,0,1.458.479,6.238,6.238,0,0,0,1.645,0,7.462,7.462,0,0,0,1.645-.411A6.858,6.858,0,0,0,7.956,13.4a4.957,4.957,0,0,0,1.118-1.033,3.07,3.07,0,0,0,.6-1.25,4.548,4.548,0,0,0,.081-1.377A4.094,4.094,0,0,0,9.431,8.466Z" transform="translate(8525 1447.21)" fill="#fff" fill-rule="evenodd"/>
        </g>
        <g id="Fill_7" data-name="Fill 7">
          <path id="Path_17" data-name="Path 17" d="M17.244,4.845q.048-.386.146-.814a6.945,6.945,0,0,1,.243-.831,3.274,3.274,0,0,1,.34-.7,1.3,1.3,0,0,1,.413-.42.4.4,0,0,1,.446.025.819.819,0,0,1,.3.638,2.538,2.538,0,0,1-.113,1.041,2.773,2.773,0,0,1-.608,1.041,2.1,2.1,0,0,1-1.183.638A2.467,2.467,0,0,1,17.244,4.845Zm5.615.688a.89.89,0,0,0-.51-.017.428.428,0,0,0-.308.353,5.14,5.14,0,0,1-.413,1.1,5.8,5.8,0,0,1-.7,1.066,5.284,5.284,0,0,1-.932.89,3.454,3.454,0,0,1-1.086.554,1.412,1.412,0,0,1-.94.042,1.187,1.187,0,0,1-.592-.487,2.419,2.419,0,0,1-.316-.831,6.073,6.073,0,0,1-.114-1.007A2.827,2.827,0,0,0,18.6,6.85a3.928,3.928,0,0,0,1.223-1.091,5.024,5.024,0,0,0,.761-1.528,6.63,6.63,0,0,0,.292-1.687,3.114,3.114,0,0,0-.227-1.334,2.059,2.059,0,0,0-.656-.848A1.87,1.87,0,0,0,19.043.01a2.461,2.461,0,0,0-1.086.151,2.636,2.636,0,0,0-1.126.764,4.784,4.784,0,0,0-.77,1.225,7.964,7.964,0,0,0-.486,1.5,14.009,14.009,0,0,0-.259,1.587c-.049.467-.075.914-.084,1.345l-.07.166a10.187,10.187,0,0,1-.583,1.167,4.292,4.292,0,0,1-.737.957A.856.856,0,0,1,13,9.142q-.259-.067-.283-.621a9.956,9.956,0,0,1,.057-1.377q.081-.822.186-1.78a16.766,16.766,0,0,0,.105-1.83,3.918,3.918,0,0,0-.275-1.452A3.245,3.245,0,0,0,12.035.925a2.362,2.362,0,0,0-1.11-.613,2.008,2.008,0,0,0-1.361.2,2.871,2.871,0,0,0-1.159.99,12.45,12.45,0,0,0-.786,1.343,4.1,4.1,0,0,0-.381-1,3.207,3.207,0,0,0-.616-.806A2.772,2.772,0,0,0,5.8.505,2.423,2.423,0,0,0,4.848.312a2.1,2.1,0,0,0-.9.193A3.12,3.12,0,0,0,3.2,1a4.289,4.289,0,0,0-.616.68,7.928,7.928,0,0,0-.486.747q-.033-.436-.073-.764a1.866,1.866,0,0,0-.146-.554.766.766,0,0,0-.3-.344A1.073,1.073,0,0,0,1.024.648.908.908,0,0,0,.668.723a1.015,1.015,0,0,0-.316.21.889.889,0,0,0-.211.327A.915.915,0,0,0,.1,1.706,2.506,2.506,0,0,0,.19,2.15a6.083,6.083,0,0,1,.138.68q.064.42.105,1.016T.457,5.306Q.441,6.171.335,7.329T0,10.015a.6.6,0,0,0,.259.571,1.28,1.28,0,0,0,.664.252,1.281,1.281,0,0,0,.7-.134.7.7,0,0,0,.381-.588q.049-.789.186-1.679t.34-1.762Q2.742,5.8,3,5.012a9.215,9.215,0,0,1,.575-1.393,4.337,4.337,0,0,1,.656-.965.984.984,0,0,1,.713-.361.781.781,0,0,1,.7.428,3.148,3.148,0,0,1,.356,1.1,8.966,8.966,0,0,1,.1,1.469q-.009.8-.065,1.536T5.91,8.143q-.073.579-.105.8a.743.743,0,0,0,.283.613,1.231,1.231,0,0,0,.632.269,1.038,1.038,0,0,0,.656-.134.735.735,0,0,0,.356-.6q.162-1.208.445-2.425a17.286,17.286,0,0,1,.648-2.182,6.727,6.727,0,0,1,.81-1.578,1.22,1.22,0,0,1,.948-.613q.259,0,.4.369a2.972,2.972,0,0,1,.138,1.007,6.638,6.638,0,0,1-.073.965q-.073.5-.17,1.024t-.17,1.083A8.9,8.9,0,0,0,10.633,7.9a6.816,6.816,0,0,0,.081.974,3.829,3.829,0,0,0,.308,1.049,2.434,2.434,0,0,0,.624.839,1.49,1.49,0,0,0,1.012.344,3.219,3.219,0,0,0,1.637-.411A4.142,4.142,0,0,0,15.519,9.62c.018-.023.034-.048.051-.071.026.065.049.135.078.2a2.625,2.625,0,0,0,2.358,1.586,4.466,4.466,0,0,0,1.766-.311,4.831,4.831,0,0,0,1.239-.672,4.728,4.728,0,0,0,.948-.982,7.868,7.868,0,0,0,.77-1.334q.348-.756.7-1.729a.506.506,0,0,0-.121-.478A1,1,0,0,0,22.859,5.533Z" transform="translate(8558.93 1451.34)" fill="#fff" fill-rule="evenodd"/>
        </g>
        <g id="Fill_9" data-name="Fill 9">
          <path id="Path_18" data-name="Path 18" d="M5.218,3.24q-.081.5-.219,1.091T4.651,5.565a5.676,5.676,0,0,1-.518,1.15,2.852,2.852,0,0,1-.7.814,1.258,1.258,0,0,1-.916.252.516.516,0,0,1-.4-.369,2.375,2.375,0,0,1-.146-.856,6.738,6.738,0,0,1,.089-1.141,7.249,7.249,0,0,1,.3-1.217,6.124,6.124,0,0,1,.494-1.1,2.482,2.482,0,0,1,.673-.781,1.3,1.3,0,0,1,.834-.26,1.626,1.626,0,0,1,.972.47Q5.3,2.745,5.218,3.24Zm5.761,1.284a.674.674,0,0,0-.518-.059q-.267.075-.381.512a5.725,5.725,0,0,1-.291,1.108,7.2,7.2,0,0,1-.559,1.209,3.785,3.785,0,0,1-.762.949,1.227,1.227,0,0,1-.915.344.634.634,0,0,1-.567-.428,2.712,2.712,0,0,1-.17-.991,7.792,7.792,0,0,1,.113-1.343q.122-.747.292-1.486t.349-1.418q.178-.68.292-1.15a.774.774,0,0,0-.081-.714,1.178,1.178,0,0,0-.526-.42,1.147,1.147,0,0,0-.64-.067.5.5,0,0,0-.421.361A3.2,3.2,0,0,0,4.352.008a2.607,2.607,0,0,0-1.629.4A4.371,4.371,0,0,0,1.4,1.771,8.722,8.722,0,0,0,.471,3.71,8.865,8.865,0,0,0,.025,5.85,6.068,6.068,0,0,0,.163,7.839a3.077,3.077,0,0,0,.8,1.469,2.121,2.121,0,0,0,1.564.571,2.01,2.01,0,0,0,.843-.185,4.148,4.148,0,0,0,.745-.437,4.434,4.434,0,0,0,.6-.529q.259-.277.4-.462a2.976,2.976,0,0,0,.373,1.024,2.687,2.687,0,0,0,.591.688,2.309,2.309,0,0,0,.7.395,2.157,2.157,0,0,0,.7.126,2.228,2.228,0,0,0,1.426-.537A5.976,5.976,0,0,0,10.1,8.645,8.5,8.5,0,0,0,10.971,7a7.831,7.831,0,0,0,.454-1.536.563.563,0,0,0-.04-.529A1.007,1.007,0,0,0,10.979,4.524Z" transform="translate(8585.38 1451.76)" fill="#fff" fill-rule="evenodd"/>
        </g>
        <g id="Group_13" data-name="Group 13">
          <g id="Fill_11" data-name="Fill 11">
            <path id="Path_19" data-name="Path 19" d="M25.733,18.26a2.647,2.647,0,0,1-.429.965.924.924,0,0,1-.729.411.427.427,0,0,1-.421-.3,2.736,2.736,0,0,1-.2-.822,8.97,8.97,0,0,1-.049-1.125q.008-.621.049-1.225t.1-1.125q.056-.521.089-.806a1.383,1.383,0,0,1,.915.5,3,3,0,0,1,.559,1.016,4.739,4.739,0,0,1,.227,1.267A4.438,4.438,0,0,1,25.733,18.26Zm-5.866,0a2.647,2.647,0,0,1-.429.965.924.924,0,0,1-.729.411.427.427,0,0,1-.421-.3,2.73,2.73,0,0,1-.2-.822,8.95,8.95,0,0,1-.049-1.125q.008-.621.049-1.225t.1-1.125q.056-.521.089-.806a1.383,1.383,0,0,1,.915.5,3,3,0,0,1,.559,1.016,4.739,4.739,0,0,1,.227,1.267A4.438,4.438,0,0,1,19.866,18.26Zm-6.02-9.535a5.207,5.207,0,0,1-.073.713.722.722,0,0,1-.154.395,1.552,1.552,0,0,1-.438-.52,3.636,3.636,0,0,1-.405-.949,2.745,2.745,0,0,1-.089-1.041,1.039,1.039,0,0,1,.51-.8.214.214,0,0,1,.308.076,1.449,1.449,0,0,1,.211.512,4.887,4.887,0,0,1,.113.772A7.427,7.427,0,0,1,13.847,8.725Zm-1.434,3.349a2.9,2.9,0,0,1-.559.478,2.519,2.519,0,0,1-.632.3,1.193,1.193,0,0,1-.583.05A1.817,1.817,0,0,1,9.52,12.25a2.532,2.532,0,0,1-.494-1.183A4.531,4.531,0,0,1,9.05,9.615,5.572,5.572,0,0,1,9.488,8.18a4.463,4.463,0,0,1,.745-1.141,1.857,1.857,0,0,1,.956-.6,6.029,6.029,0,0,0-.13,1.771,5.107,5.107,0,0,0,.421,1.721,4.534,4.534,0,0,0,.543.89,2.988,2.988,0,0,0,.77.688A2.2,2.2,0,0,1,12.413,12.074Zm17.93-3.181q.048-.386.146-.814a7.028,7.028,0,0,1,.243-.831,3.274,3.274,0,0,1,.34-.7,1.3,1.3,0,0,1,.413-.42.4.4,0,0,1,.446.025.819.819,0,0,1,.3.638,2.537,2.537,0,0,1-.113,1.041,2.772,2.772,0,0,1-.608,1.041,2.094,2.094,0,0,1-1.183.638A2.463,2.463,0,0,1,30.343,8.893Zm6.53,0q.049-.386.146-.814a7.028,7.028,0,0,1,.243-.831,3.274,3.274,0,0,1,.34-.7,1.3,1.3,0,0,1,.413-.42.4.4,0,0,1,.446.025.819.819,0,0,1,.3.638,2.533,2.533,0,0,1-.113,1.041,2.772,2.772,0,0,1-.608,1.041,2.094,2.094,0,0,1-1.183.638A2.473,2.473,0,0,1,36.873,8.893Zm6.069.982a1,1,0,0,0-.454-.294.889.889,0,0,0-.511-.017.428.428,0,0,0-.308.352,5.12,5.12,0,0,1-.413,1.1,5.773,5.773,0,0,1-.7,1.066,5.29,5.29,0,0,1-.932.89,3.453,3.453,0,0,1-1.086.554,1.411,1.411,0,0,1-.94.042,1.188,1.188,0,0,1-.591-.487,2.423,2.423,0,0,1-.316-.831,6.09,6.09,0,0,1-.113-1.007,2.826,2.826,0,0,0,1.645-.344A3.931,3.931,0,0,0,39.45,9.808a5.016,5.016,0,0,0,.761-1.527A6.64,6.64,0,0,0,40.5,6.593a3.12,3.12,0,0,0-.227-1.335,2.058,2.058,0,0,0-.656-.848,1.87,1.87,0,0,0-.948-.353,2.464,2.464,0,0,0-1.086.151,2.64,2.64,0,0,0-1.126.764A4.8,4.8,0,0,0,35.69,6.2,7.959,7.959,0,0,0,35.2,7.7a13.937,13.937,0,0,0-.259,1.586q-.079.757-.088,1.451c-.041.092-.084.185-.132.278a5.773,5.773,0,0,1-.7,1.066,5.276,5.276,0,0,1-.932.89,3.448,3.448,0,0,1-1.086.554,1.411,1.411,0,0,1-.94.042,1.188,1.188,0,0,1-.591-.487,2.419,2.419,0,0,1-.316-.831,6.069,6.069,0,0,1-.114-1.007A2.827,2.827,0,0,0,31.7,10.9a3.931,3.931,0,0,0,1.223-1.091,5.015,5.015,0,0,0,.761-1.527,6.631,6.631,0,0,0,.292-1.687,3.117,3.117,0,0,0-.227-1.335,2.06,2.06,0,0,0-.656-.848,1.87,1.87,0,0,0-.948-.353,2.463,2.463,0,0,0-1.086.151,2.64,2.64,0,0,0-1.126.764A4.794,4.794,0,0,0,29.16,6.2a7.959,7.959,0,0,0-.486,1.5,13.984,13.984,0,0,0-.259,1.586c-.031.293-.051.578-.066.857-.1.092-.206.185-.315.276a9.712,9.712,0,0,1-1.175.848,7.149,7.149,0,0,1-1.28.621,4.979,4.979,0,0,1-1.361.294l1-11.146a.694.694,0,0,0-.1-.621.985.985,0,0,0-.5-.369,1.019,1.019,0,0,0-.656.017A1.054,1.054,0,0,0,23.391.6q-.113.638-.235,1.746t-.243,2.417q-.121,1.309-.243,2.7t-.211,2.6c0,.036,0,.068-.008.1-.094.083-.186.167-.284.249a9.721,9.721,0,0,1-1.175.848,7.144,7.144,0,0,1-1.28.621,4.982,4.982,0,0,1-1.361.294l1-11.146a.693.693,0,0,0-.1-.621.987.987,0,0,0-.5-.369A1.018,1.018,0,0,0,18.1.063,1.054,1.054,0,0,0,17.525.6q-.113.638-.235,1.746t-.243,2.417q-.122,1.309-.243,2.7t-.211,2.6c0,.016,0,.031,0,.047a3.791,3.791,0,0,1-.556.213,2.842,2.842,0,0,1-.7.109,6.778,6.778,0,0,0,.105-.672q.04-.369.065-.772t.016-.806q-.009-.4-.041-.739a6.552,6.552,0,0,0-.3-1.368A3.262,3.262,0,0,0,14.592,5a1.823,1.823,0,0,0-.932-.587,2.242,2.242,0,0,0-1.3.1,3.809,3.809,0,0,0-1.985.21A4.332,4.332,0,0,0,8.84,5.771a5.73,5.73,0,0,0-1.061,1.62A7.146,7.146,0,0,0,7.227,9.3a7.026,7.026,0,0,0-.064.829A4.927,4.927,0,0,1,5.72,11.965a4.019,4.019,0,0,1-.915.537,4.276,4.276,0,0,1-.81.252,2.2,2.2,0,0,1-.81.017,1.329,1.329,0,0,1-.713-.386,1.523,1.523,0,0,1-.4-.755,5.412,5.412,0,0,1-.162-1.183,10.11,10.11,0,0,1,.049-1.385,8.256,8.256,0,0,1,.251-1.368,5.546,5.546,0,0,1,.454-1.159,1.8,1.8,0,0,1,.648-.73.3.3,0,0,1,.259.26A1.883,1.883,0,0,1,3.6,6.6q-.024.311-.073.638a3.832,3.832,0,0,0-.049.546,1.36,1.36,0,0,0,.316.705.886.886,0,0,0,.527.294.817.817,0,0,0,.575-.143,1.305,1.305,0,0,0,.462-.588A.064.064,0,0,0,5.4,8.07l.227-2.132a.954.954,0,0,0-.13-.772.837.837,0,0,0-.6-.386A1.563,1.563,0,0,0,3.63,4.033a2.63,2.63,0,0,0-1.645.546A3.509,3.509,0,0,0,1.07,5.645,6.984,6.984,0,0,0,.422,7.155,9.914,9.914,0,0,0,.065,8.91a9.565,9.565,0,0,0-.041,1.8,7.55,7.55,0,0,0,.3,1.645,3.763,3.763,0,0,0,.656,1.293,2.218,2.218,0,0,0,.81.663,2.956,2.956,0,0,0,.948.26,3.4,3.4,0,0,0,.981-.042,5.318,5.318,0,0,0,.923-.26,9.009,9.009,0,0,0,1.167-.554A7.173,7.173,0,0,0,6.96,12.9a6.842,6.842,0,0,0,.559-.537,4.366,4.366,0,0,0,.283.6A3.507,3.507,0,0,0,8.986,14.2a3.271,3.271,0,0,0,1.831.453,4.219,4.219,0,0,0,2.155-.613,4.507,4.507,0,0,0,1.621-1.754,5.592,5.592,0,0,0,1.862-.322c0,.068-.01.139-.015.2q-.064.89-.065,1.209-.016.554-.073,1.368t-.073,1.712a17.089,17.089,0,0,0,.065,1.813,6.929,6.929,0,0,0,.34,1.662,3.579,3.579,0,0,0,.737,1.267,1.991,1.991,0,0,0,1.256.621,1.926,1.926,0,0,0,1.426-.3,3.083,3.083,0,0,0,.972-1.15,5.688,5.688,0,0,0,.526-1.687,8.5,8.5,0,0,0,.089-1.922,7.585,7.585,0,0,0-.34-1.821,3.942,3.942,0,0,0-.762-1.411,3.191,3.191,0,0,0,.7-.319q.4-.235.835-.529c.07-.048.14-.1.21-.148-.026.4-.04.679-.04.845q-.016.554-.073,1.368t-.073,1.712a17.063,17.063,0,0,0,.065,1.813,6.944,6.944,0,0,0,.34,1.662,3.585,3.585,0,0,0,.737,1.267,1.991,1.991,0,0,0,1.256.621,1.926,1.926,0,0,0,1.426-.3,3.08,3.08,0,0,0,.972-1.15,5.685,5.685,0,0,0,.527-1.687,8.5,8.5,0,0,0,.089-1.922,7.6,7.6,0,0,0-.34-1.821,3.94,3.94,0,0,0-.762-1.411,3.187,3.187,0,0,0,.7-.319q.405-.235.835-.529.223-.153.444-.315a4.4,4.4,0,0,0,.366,1.431A2.624,2.624,0,0,0,31.1,15.381a4.462,4.462,0,0,0,1.766-.311A4.821,4.821,0,0,0,34.11,14.4a4.741,4.741,0,0,0,.948-.982c.016-.022.032-.047.047-.069a3.6,3.6,0,0,0,.171.447,2.624,2.624,0,0,0,2.358,1.586A4.462,4.462,0,0,0,39.4,15.07a4.819,4.819,0,0,0,1.24-.671,4.741,4.741,0,0,0,.948-.982,7.893,7.893,0,0,0,.77-1.335q.348-.756.7-1.729A.505.505,0,0,0,42.942,9.875Z" transform="translate(8599.79 1447.29)" fill="#fff" fill-rule="evenodd"/>
          </g>
        </g>
      </g>
    </g>
  </g>
</svg>
