<svg width="60" height="12" viewBox="0 0 60 12" fill="none" xmlns="http://www.w3.org/2000/svg">
  <g opacity="0.4">
    <path d="M5.17853 3.33251H8.70086L8.15536 5.16237C8.07203 5.41737 7.91617 5.6222 7.68779 5.77688C7.45914 5.93182 7.19413 6.00907 6.89296 6.00907H5.25646C4.88235 6.00907 4.55234 6.10461 4.26671 6.29584C3.98076 6.48702 3.7809 6.74643 3.66661 7.07417C3.59387 7.32002 3.58608 7.55216 3.64328 7.77061C3.70032 7.98915 3.80158 8.18269 3.9472 8.35098C4.09262 8.51953 4.27959 8.65377 4.50834 8.75391C4.73672 8.85419 4.98615 8.90403 5.25646 8.90403H6.2539C6.44092 8.90403 6.59413 8.97022 6.71368 9.10204C6.83301 9.23414 6.86688 9.38198 6.81503 9.54585L6.1916 11.5669H5.1006C4.35248 11.5669 3.66401 11.4235 3.03549 11.1368C2.40665 10.85 1.88453 10.47 1.46912 9.99649C1.05339 9.52327 0.770146 8.98387 0.619691 8.37838C0.468925 7.77302 0.48716 7.15164 0.674189 6.51429L0.736585 6.30945C0.871453 5.87251 1.08186 5.46962 1.3677 5.10097C1.65344 4.73222 1.99114 4.41818 2.38078 4.15868C2.77042 3.89922 3.20423 3.69675 3.68224 3.55104C4.16005 3.40552 4.6588 3.33251 5.17853 3.33251Z" fill="black"/>
    <path d="M6.95508 11.5669L10.0255 1.48899C10.1084 1.23422 10.2643 1.02938 10.493 0.874481C10.7214 0.719762 10.9864 0.642334 11.2879 0.642334H14.5453C15.2935 0.642334 15.9816 0.785719 16.6105 1.07249C17.2389 1.35926 17.7611 1.73952 18.1768 2.21274C18.5922 2.68618 18.8782 3.22563 19.0341 3.83094C19.1899 4.43652 19.1689 5.05781 18.9717 5.69494L18.9094 5.89978C18.7742 6.33676 18.5665 6.7396 18.2859 7.10831C18.0053 7.47701 17.6703 7.79346 17.2807 8.05738C16.891 8.32153 16.457 8.52636 15.9792 8.67189C15.5012 8.81764 15.0024 8.89042 14.483 8.89042H11.662L12.2231 7.04686C12.3061 6.80105 12.4619 6.60091 12.6906 6.44601C12.9191 6.29133 13.184 6.21386 13.4855 6.21386H14.3895C14.7635 6.21386 15.0986 6.11376 15.3947 5.91343C15.6909 5.71329 15.8857 5.45383 15.9792 5.13506C16.0518 4.9076 16.0596 4.68442 16.0026 4.46593C15.9454 4.24744 15.8441 4.05412 15.6986 3.88556C15.553 3.71723 15.366 3.58068 15.1376 3.47589C14.9089 3.37133 14.6596 3.31885 14.3895 3.31885H12.6439L10.3683 10.7339C10.285 10.9797 10.1292 11.1801 9.90074 11.3347C9.67215 11.4896 9.41228 11.5669 9.12145 11.5669H6.95508Z" fill="black"/>
    <path d="M26.3905 6.18698L26.4373 6.03676C26.458 5.96402 26.4451 5.90257 26.3983 5.85241C26.3515 5.80252 26.2866 5.7773 26.2035 5.7773L21.1381 5.7773C20.9199 5.7773 20.7224 5.73638 20.5458 5.6544C20.3691 5.57247 20.2237 5.46554 20.1095 5.33349C19.995 5.20167 19.9171 5.04909 19.8758 4.87603C19.834 4.70319 19.8392 4.52567 19.8912 4.34346L20.203 3.30562L27.0607 3.30562C27.4867 3.30562 27.8763 3.38756 28.2296 3.55147C28.5827 3.71529 28.8765 3.92928 29.1103 4.19324C29.3441 4.45739 29.505 4.75995 29.5934 5.10135C29.6816 5.44274 29.6737 5.79565 29.5701 6.15966L28.3387 10.1745C28.2141 10.5842 27.9621 10.9165 27.5829 11.1714C27.2035 11.4263 26.7697 11.5537 26.2814 11.5537L21.216 11.5401C20.7692 11.5401 20.3588 11.4559 19.9848 11.2874C19.6107 11.1191 19.3042 10.8961 19.0652 10.6183C18.8261 10.3407 18.66 10.0221 18.5664 9.6624C18.473 9.30284 18.4835 8.93646 18.5976 8.56307L18.66 8.35823C18.7326 8.10351 18.8548 7.86667 19.0262 7.64818C19.1977 7.42964 19.3976 7.24315 19.6263 7.08825C19.8547 6.93353 20.1095 6.813 20.39 6.72642C20.6705 6.63998 20.9668 6.59665 21.2785 6.59665L25.5333 6.59665L25.2216 7.62087C25.1383 7.86667 24.9825 8.067 24.754 8.22167C24.5254 8.37662 24.2655 8.45382 23.9747 8.45382H22.0732C21.8965 8.45382 21.7823 8.53134 21.7304 8.68601C21.6992 8.78629 21.72 8.87505 21.7927 8.9523C21.8653 9.02973 21.9588 9.06833 22.0732 9.06833H25.1436C25.2579 9.06833 25.3565 9.04102 25.4398 8.98644C25.5228 8.93177 25.5747 8.85903 25.5957 8.7679L25.6269 8.65866L26.3905 6.18698Z" fill="black"/>
    <path d="M35.4615 3.33251C36.2197 3.33251 36.9133 3.47589 37.542 3.76266C38.1707 4.04943 38.6927 4.4297 39.1085 4.90291C39.5239 5.3764 39.8072 5.91817 39.9578 6.52794C40.1084 7.13799 40.0851 7.76173 39.8878 8.39882L39.1085 10.9661C39.0564 11.1483 38.9448 11.2938 38.7735 11.4031C38.602 11.5123 38.4123 11.5669 38.2044 11.5669H36.5212C36.3238 11.5669 36.168 11.501 36.0537 11.3689C35.9392 11.2371 35.908 11.0889 35.9601 10.9251L36.8953 7.82528C36.9679 7.59777 36.9757 7.37464 36.9186 7.1561C36.8614 6.93761 36.7601 6.74429 36.6148 6.57574C36.4691 6.40741 36.2822 6.27085 36.0537 6.16607C35.825 6.06151 35.5755 6.00907 35.3056 6.00907H33.5599L32.0481 10.9661C31.9961 11.1483 31.8845 11.2938 31.713 11.4031C31.5415 11.5123 31.3467 11.5669 31.1286 11.5669H29.4609C29.2738 11.5669 29.1204 11.501 29.0011 11.3689C28.8818 11.2371 28.8479 11.0889 28.8997 10.9251L31.2065 3.33251H35.4615Z" fill="black"/>
    <path d="M44.6412 5.93392C44.5166 6.02054 44.4281 6.13193 44.3763 6.26848L43.6749 8.58995C43.6333 8.71759 43.6594 8.83575 43.7528 8.945C43.8464 9.05429 43.9711 9.10887 44.127 9.10887H50.5795L50.0807 10.7339C49.9974 10.9797 49.8416 11.1801 49.6131 11.3347C49.3844 11.4896 49.1246 11.5669 48.8339 11.5669L42.9581 11.5669C42.5318 11.5669 42.1422 11.4873 41.7891 11.3279C41.4357 11.1688 41.1422 10.9548 40.9084 10.6861C40.6746 10.4177 40.5134 10.1126 40.4254 9.77122C40.3372 9.42982 40.35 9.08156 40.4643 8.72651L41.415 5.62666C41.5188 5.29001 41.6799 4.98039 41.8982 4.69808C42.1163 4.416 42.3736 4.1747 42.6697 3.97433C42.9658 3.77418 43.2981 3.61718 43.6671 3.5032C44.0359 3.3895 44.4177 3.33251 44.8127 3.33251L48.9741 3.33251C49.4001 3.33251 49.7897 3.41444 50.143 3.57831C50.4961 3.74218 50.7899 3.95621 51.0237 4.22013C51.2575 4.48427 51.4157 4.78921 51.499 5.13506C51.5821 5.48114 51.5716 5.8315 51.4678 6.18655L51.1873 7.11514C51.0627 7.52485 50.8106 7.85487 50.4314 8.10522C50.052 8.35567 49.6234 8.48075 49.1456 8.48075H44.4387L44.7504 7.47018C44.823 7.22438 44.9736 7.02424 45.2024 6.86933C45.4307 6.71461 45.6957 6.63719 45.9973 6.63719H47.8987C48.0753 6.63719 48.1894 6.55994 48.2416 6.40504L48.3039 6.2002C48.3352 6.10011 48.3141 6.00902 48.2416 5.92709C48.1687 5.84516 48.0753 5.80419 47.961 5.80419H45.0621C44.9063 5.80419 44.7659 5.84752 44.6412 5.93392Z" fill="black"/>
    <path d="M50.5635 11.5669L53.6962 1.25684C53.748 1.07485 53.8598 0.926965 54.0313 0.81303C54.2027 0.699324 54.3975 0.642334 54.6158 0.642334H56.2835C56.4807 0.642334 56.6392 0.708472 56.7588 0.840342C56.8782 0.972437 56.9119 1.12028 56.8601 1.28415L54.5222 8.89042C54.4078 9.29113 54.2234 9.6551 53.9689 9.98288C53.7142 10.3106 53.413 10.5906 53.0649 10.8227C52.7167 11.0548 52.3298 11.2371 51.9038 11.3689C51.4776 11.501 51.031 11.5669 50.5635 11.5669Z" fill="black"/>
    <path fill-rule="evenodd" clip-rule="evenodd" d="M57.5727 1.1117C57.478 1.2569 57.4307 1.41249 57.4307 1.57845C57.4307 1.74273 57.4768 1.89667 57.5692 2.0402C57.6615 2.18376 57.7906 2.29847 57.9563 2.38436C58.1219 2.47021 58.3029 2.51318 58.4989 2.51318C58.6959 2.51318 58.8773 2.47008 59.043 2.38373C59.2087 2.29747 59.3376 2.18253 59.4294 2.03897C59.5212 1.89545 59.5672 1.74191 59.5672 1.57845C59.5672 1.41085 59.5194 1.2544 59.4237 1.1092C59.328 0.964035 59.1974 0.849919 59.0316 0.766938C58.866 0.683957 58.6884 0.642444 58.4989 0.642444C58.3077 0.642444 58.1291 0.684367 57.9634 0.768167C57.7977 0.852013 57.6674 0.966493 57.5727 1.1117ZM57.5797 1.57845C57.5797 1.72202 57.6209 1.85621 57.7033 1.98107C57.7857 2.10602 57.8981 2.20434 58.0407 2.27608C58.1832 2.34786 58.336 2.38373 58.4988 2.38373C58.6636 2.38373 58.8166 2.34763 58.9577 2.27544C59.0988 2.20325 59.2107 2.10556 59.2936 1.98234C59.3765 1.85912 59.418 1.72452 59.418 1.57845C59.418 1.43407 59.3768 1.30006 59.2944 1.17643C59.212 1.0528 59.1004 0.954705 58.9598 0.882056C58.8191 0.809453 58.6655 0.773129 58.4988 0.773129C58.334 0.773129 58.1811 0.809226 58.04 0.881419C57.8989 0.953612 57.7869 1.05134 57.704 1.17456C57.6211 1.29778 57.5797 1.43243 57.5797 1.57845ZM58.9197 1.4377C58.928 1.4107 58.9322 1.38211 58.9322 1.35192C58.9322 1.24159 58.8954 1.15947 58.8221 1.10548C58.7487 1.05154 58.6333 1.0246 58.4762 1.0246L58.3158 1.0246V1.53986H58.5844C58.717 1.53986 58.8235 1.50995 58.9039 1.45005C58.9094 1.446 58.9146 1.44189 58.9197 1.4377ZM58.9197 1.4377C58.9097 1.47009 58.8938 1.5002 58.8718 1.52804C58.8315 1.57906 58.775 1.61703 58.702 1.64192L59.0401 2.13358H58.8015L58.5074 1.69295H58.3157V2.13358H58.1054V1.0246H58.3158V0.918859L58.5794 0.918859C58.7336 0.918859 58.8464 0.94236 58.9176 0.989204C58.9888 1.03613 59.0245 1.11359 59.0245 1.22176C59.0245 1.30786 58.9897 1.37986 58.9197 1.4377Z" fill="black"/>
    <path fill-rule="evenodd" clip-rule="evenodd" d="M7.21432 10.8856C7.32065 10.547 7.99918 8.32072 8.72218 5.93824C9.44518 3.55576 10.0874 1.49254 10.1493 1.35331C10.2112 1.21408 10.4079 1.00889 10.5864 0.897334C10.8822 0.712448 11.0555 0.691657 12.5458 0.662242C15.3799 0.606302 16.4396 0.842403 17.6079 1.79012C18.8496 2.7974 19.3353 4.21346 18.9223 5.6227C18.437 7.27843 17.1375 8.41891 15.3554 8.75307C15.052 8.80995 14.1102 8.85649 13.2624 8.85649H11.7209L12.0204 7.89104C12.4664 6.45349 12.5912 6.35352 14.0463 6.26864C15.0499 6.2101 15.5008 6.01479 15.8349 5.49399C16.2935 4.77902 16.0535 3.98213 15.2338 3.49812C14.9074 3.30537 14.7826 3.29006 13.7298 3.31355L12.5817 3.33917L11.4302 7.07818C10.7968 9.13464 10.2204 10.9091 10.1493 11.0214C9.90906 11.401 9.50537 11.5012 8.21651 11.5012H7.021L7.21432 10.8856Z" fill="black"/>
    <path fill-rule="evenodd" clip-rule="evenodd" d="M20.5382 11.4174C19.8141 11.2191 19.1763 10.7449 18.8098 10.1327C18.5271 9.66031 18.5493 8.67086 18.8559 8.08084C19.1655 7.48496 19.5355 7.14935 20.1745 6.88465C20.6741 6.67774 20.7903 6.66905 23.0712 6.6682L25.4474 6.66731L25.3765 6.96369C25.2488 7.49789 24.9422 8.00295 24.626 8.20023C24.3589 8.3669 24.1438 8.39762 23.0888 8.41981C22.0539 8.44158 21.8442 8.47057 21.7475 8.60521C21.664 8.72144 21.664 8.80817 21.7475 8.92439C21.8474 9.0633 22.0715 9.08723 23.4769 9.10904C24.3649 9.12282 25.205 9.09628 25.3437 9.05006C25.5663 8.97593 25.6487 8.79265 26.0437 7.4946C26.2899 6.68531 26.465 5.96291 26.4328 5.88926C26.3832 5.7762 25.9466 5.75536 23.628 5.75536C20.9418 5.75536 20.8742 5.75082 20.5297 5.54743C19.9022 5.17693 19.799 4.71372 20.1239 3.72626L20.2364 3.38428H23.9276C27.4713 3.38428 27.6376 3.392 28.0882 3.57758C28.9626 3.93769 29.5942 4.78045 29.5942 5.58702C29.5942 5.99616 28.2807 10.281 28.0473 10.633C27.9481 10.7828 27.6661 11.029 27.4207 11.1802L26.9746 11.4551L23.8868 11.472C22.1886 11.4812 20.6817 11.4567 20.5382 11.4174H20.5382Z" fill="black"/>
    <path fill-rule="evenodd" clip-rule="evenodd" d="M29.0947 11.3913C29.026 11.3311 28.9712 11.1772 28.9729 11.0493C28.9747 10.9214 29.4835 9.15472 30.1036 7.12334L31.2311 3.42993L33.603 3.40538C36.2747 3.37774 36.8395 3.45203 37.8024 3.9577C39.2014 4.69247 40.1052 6.19185 39.9787 7.56839C39.9 8.42537 39.0599 11.0584 38.7896 11.2952C38.5751 11.4832 38.4586 11.5007 37.4262 11.5007C36.2197 11.5007 36.0475 11.4458 36.0475 11.0609C36.0475 10.9394 36.2632 10.1177 36.5268 9.23479C37.0518 7.47646 37.0749 7.07181 36.6777 6.58312C36.2797 6.09345 35.9236 5.98857 34.6495 5.98584L33.5117 5.9834L32.9129 7.9441C32.5836 9.02248 32.2329 10.1701 32.1336 10.4943C32.0343 10.8186 31.846 11.1777 31.7152 11.2923C31.4966 11.4838 31.3855 11.5007 30.3484 11.5007C29.6092 11.5007 29.1765 11.4629 29.0947 11.3913Z" fill="black"/>
    <path fill-rule="evenodd" clip-rule="evenodd" d="M42.0985 11.3759C41.2422 11.1043 40.4222 10.1382 40.4199 9.39794C40.4186 8.97871 41.3988 5.75835 41.7102 5.15848C42.0586 4.48761 42.5319 4.06554 43.314 3.72819L44.0055 3.42993H46.8179C49.9325 3.42993 50.0424 3.44748 50.7346 4.05531C51.4699 4.70103 51.6243 5.5332 51.2362 6.76039C50.9852 7.55411 50.6642 7.96497 50.0969 8.21853C49.724 8.3852 49.4814 8.40008 47.1365 8.40008C45.0918 8.40008 44.5823 8.37609 44.5823 8.27984C44.5823 7.931 44.9257 7.2225 45.2109 6.98287C45.5257 6.7184 45.5576 6.71234 46.8006 6.68216C47.4983 6.66521 48.1277 6.60889 48.1992 6.557C48.3895 6.419 48.3645 5.87793 48.1647 5.81077C48.0742 5.78032 47.2831 5.75541 46.4068 5.75541C45.0414 5.75541 44.7825 5.77824 44.5967 5.915C44.4473 6.02494 44.2655 6.44747 44.0127 7.2729C43.6166 8.56556 43.5771 8.8508 43.7704 9.0202C43.8624 9.10074 44.7712 9.12964 47.2122 9.12964C50.3226 9.12964 50.5257 9.13958 50.4745 9.28923C50.4445 9.37701 50.3287 9.74181 50.2171 10.0999C49.9712 10.8894 49.8684 11.0663 49.5129 11.3113C49.2469 11.4946 49.1289 11.5005 45.8433 11.4938C43.4559 11.4889 42.3447 11.4539 42.0985 11.3759Z" fill="black"/>
    <path fill-rule="evenodd" clip-rule="evenodd" d="M50.6657 11.3994C50.6939 11.3296 51.399 9.02058 52.2326 6.26831C53.0661 3.51603 53.7973 1.18366 53.8574 1.08525C54.0288 0.804709 54.5994 0.648193 55.4509 0.648193C56.2533 0.648193 56.7071 0.760258 56.8044 0.982388C56.8792 1.15302 54.4146 9.14478 54.1439 9.60976C53.8022 10.1965 53.0698 10.8126 52.3393 11.1277C51.5882 11.4517 50.5783 11.6156 50.6657 11.3994Z" fill="black"/>
    <path fill-rule="evenodd" clip-rule="evenodd" d="M5.44653 4.66101V3.38428H7.0078C8.18757 3.38428 8.56901 3.41213 8.56881 3.49827C8.56865 3.56097 8.45101 4.00213 8.30736 4.47862C8.09041 5.19823 7.98493 5.39518 7.68464 5.64136C7.33208 5.9304 7.29986 5.93775 6.38482 5.93775H5.44653V4.66101Z" fill="black"/>
    <path fill-rule="evenodd" clip-rule="evenodd" d="M58.1077 1.73288V1.02563H58.462C58.6707 1.02563 58.8395 1.02675 58.8726 1.02833C59.0385 1.03631 59.1653 1.05748 59.2689 1.09452C59.401 1.14178 59.4886 1.22368 59.5217 1.33095C59.5334 1.36865 59.5395 1.42125 59.5368 1.46113C59.5269 1.61206 59.4 1.73373 59.1847 1.79879C59.1593 1.80647 59.1392 1.81391 59.1401 1.81533C59.1409 1.81674 59.2723 1.95761 59.4319 2.12837L59.7221 2.43884L59.5212 2.43951C59.4107 2.43988 59.3185 2.43973 59.3162 2.43918C59.314 2.43863 59.198 2.31226 59.0585 2.15835L58.8049 1.87852L58.6361 1.87849L58.4673 1.87845V2.15929V2.44013H58.2875H58.1077V1.73288V1.73288ZM59.0114 2.0129C59.211 2.00374 59.3504 1.97228 59.4756 1.90819C59.6346 1.82678 59.7086 1.71785 59.6975 1.58143C59.6824 1.39567 59.5574 1.29522 59.2869 1.25136C59.1678 1.23204 59.0966 1.2285 58.7754 1.22587L58.4673 1.22336V1.62035V2.01734L58.6919 2.0173C58.8153 2.01728 58.9591 2.0153 59.0114 2.0129V2.0129Z" fill="black"/>
    <path fill-rule="evenodd" clip-rule="evenodd" d="M58.4416 2.51075C58.209 2.50047 57.9973 2.4272 57.8108 2.29248C57.6197 2.15445 57.4848 1.94571 57.4453 1.72691C57.4324 1.65569 57.4289 1.55593 57.4368 1.48812C57.4565 1.32015 57.5233 1.16571 57.6359 1.02782C57.6918 0.959295 57.7728 0.886292 57.8479 0.836617L57.8607 0.828125L58.0092 0.828644L58.1577 0.829163L58.1274 0.841088C57.942 0.914141 57.7894 1.03717 57.6912 1.1929C57.6307 1.2888 57.595 1.39024 57.5828 1.50122C57.579 1.5355 57.579 1.62093 57.5828 1.65537C57.5936 1.75342 57.623 1.84327 57.6739 1.93347C57.7616 2.08884 57.8915 2.20673 58.0658 2.28895C58.1999 2.35226 58.3431 2.38373 58.4976 2.38382C58.716 2.38395 58.9118 2.32223 59.085 2.19865C59.1172 2.17566 59.1804 2.12036 59.2072 2.09165C59.3473 1.94178 59.4185 1.76903 59.4185 1.57874C59.4185 1.45132 59.388 1.3368 59.3241 1.22393C59.2377 1.07149 59.1064 0.951712 58.9346 0.868693C58.9114 0.857502 58.8538 0.833356 58.8412 0.829519C58.8393 0.828944 58.9049 0.828402 58.9869 0.828314L59.1361 0.828155L59.1479 0.835712C59.1935 0.864856 59.2588 0.918391 59.3017 0.961629C59.38 1.04055 59.4492 1.14051 59.4943 1.23999C59.5259 1.30975 59.5499 1.39766 59.5602 1.48106C59.5658 1.52625 59.5659 1.62988 59.5604 1.67417C59.5369 1.86321 59.4534 2.03585 59.3152 2.18133C59.2875 2.21044 59.2292 2.26144 59.1931 2.28801C58.9773 2.44699 58.7206 2.52309 58.4416 2.51075L58.4416 2.51075Z" fill="black"/>
  </g>
</svg>