<svg width="16" height="16" viewBox="0 0 16 16" fill="none" xmlns="http://www.w3.org/2000/svg">
    <path opacity="0.3" fill-rule="evenodd" clip-rule="evenodd" d="M5.33333 3.3335C5.33333 2.22893 6.22876 1.3335 7.33333 1.3335C8.4379 1.3335 9.33333 2.22893 9.33333 3.3335V4.00016H10.6667C11.7712 4.00016 12.6667 4.89559 12.6667 6.00016V7.3335H13.3333C14.4379 7.3335 15.3333 8.22893 15.3333 9.3335C15.3333 10.4381 14.4379 11.3335 13.3333 11.3335H12.6667V12.6668C12.6667 13.7714 11.7712 14.6668 10.6667 14.6668H4C2.89543 14.6668 2 13.7714 2 12.6668V11.3335H3.33333C4.4379 11.3335 5.33333 10.4381 5.33333 9.3335C5.33333 8.22893 4.4379 7.3335 3.33333 7.3335H2V6.00016C2 4.8956 2.89543 4.00016 4 4.00016H5.33333V3.3335Z" fill="white"/>
</svg>