<svg width="25" height="24" viewBox="0 0 25 24" fill="none" xmlns="http://www.w3.org/2000/svg">
  <path opacity="0.3" fill-rule="evenodd" clip-rule="evenodd" d="M3.29468 4C3.29468 2.89543 4.19011 2 5.29468 2H19.4463C20.5508 2 21.4463 2.89543 21.4463 4V6C21.4463 7.10457 20.5508 8 19.4463 8H5.29468C4.19011 8 3.29468 7.10457 3.29468 6V4ZM10.3536 5C10.3536 4.44772 10.8013 4 11.3536 4H16.4126C16.9649 4 17.4126 4.44772 17.4126 5C17.4126 5.55228 16.9649 6 16.4126 6H11.3536C10.8013 6 10.3536 5.55228 10.3536 5ZM8.33678 5C8.33678 5.55228 7.8853 6 7.32836 6C6.77143 6 6.31994 5.55228 6.31994 5C6.31994 4.44772 6.77143 4 7.32836 4C7.8853 4 8.33678 4.44772 8.33678 5Z" fill="black"/>
  <path fill-rule="evenodd" clip-rule="evenodd" d="M3.29468 11C3.29468 9.89543 4.19011 9 5.29468 9H19.4463C20.5508 9 21.4463 9.89543 21.4463 11V13C21.4463 14.1046 20.5508 15 19.4463 15H5.29468C4.19011 15 3.29468 14.1046 3.29468 13V11ZM10.3536 12C10.3536 11.4477 10.8013 11 11.3536 11H16.4126C16.9649 11 17.4126 11.4477 17.4126 12C17.4126 12.5523 16.9649 13 16.4126 13H11.3536C10.8013 13 10.3536 12.5523 10.3536 12ZM8.33678 12C8.33678 12.5523 7.8853 13 7.32836 13C6.77143 13 6.31994 12.5523 6.31994 12C6.31994 11.4477 6.77143 11 7.32836 11C7.8853 11 8.33678 11.4477 8.33678 12Z" fill="black"/>
  <path fill-rule="evenodd" clip-rule="evenodd" d="M3.29468 18C3.29468 16.8954 4.19011 16 5.29468 16H19.4463C20.5508 16 21.4463 16.8954 21.4463 18V20C21.4463 21.1046 20.5508 22 19.4463 22H5.29468C4.19011 22 3.29468 21.1046 3.29468 20V18ZM10.3536 19C10.3536 18.4477 10.8013 18 11.3536 18H16.4126C16.9649 18 17.4126 18.4477 17.4126 19C17.4126 19.5523 16.9649 20 16.4126 20H11.3536C10.8013 20 10.3536 19.5523 10.3536 19ZM8.33678 19C8.33678 19.5523 7.8853 20 7.32836 20C6.77143 20 6.31994 19.5523 6.31994 19C6.31994 18.4477 6.77143 18 7.32836 18C7.8853 18 8.33678 18.4477 8.33678 19Z" fill="black"/>
</svg>