<svg width="16" height="16" viewBox="0 0 16 16" fill="none" xmlns="http://www.w3.org/2000/svg">
  <path opacity="0.3" fill-rule="evenodd" clip-rule="evenodd" d="M2 3.33337C2 2.2288 2.89543 1.33337 4 1.33337H12C13.1046 1.33337 14 2.2288 14 3.33337C14 4.43794 13.1046 5.33337 12 5.33337H4C2.89543 5.33337 2 4.43794 2 3.33337ZM6.66667 3.33337C6.66667 2.96518 6.96514 2.66671 7.33333 2.66671H10.6667C11.0349 2.66671 11.3333 2.96518 11.3333 3.33337C11.3333 3.70156 11.0349 4.00004 10.6667 4.00004H7.33333C6.96514 4.00004 6.66667 3.70156 6.66667 3.33337ZM5.33333 3.33337C5.33333 3.70156 5.03486 4.00004 4.66667 4.00004C4.29848 4.00004 4 3.70156 4 3.33337C4 2.96518 4.29848 2.66671 4.66667 2.66671C5.03486 2.66671 5.33333 2.96518 5.33333 3.33337Z" fill="white"/>
  <path fill-rule="evenodd" clip-rule="evenodd" d="M2 8C2 6.89543 2.89543 6 4 6H12C13.1046 6 14 6.89543 14 8C14 9.10457 13.1046 10 12 10H4C2.89543 10 2 9.10457 2 8ZM6.66667 8C6.66667 7.63181 6.96514 7.33333 7.33333 7.33333H10.6667C11.0349 7.33333 11.3333 7.63181 11.3333 8C11.3333 8.36819 11.0349 8.66667 10.6667 8.66667H7.33333C6.96514 8.66667 6.66667 8.36819 6.66667 8ZM5.33333 8C5.33333 8.36819 5.03486 8.66667 4.66667 8.66667C4.29848 8.66667 4 8.36819 4 8C4 7.63181 4.29848 7.33333 4.66667 7.33333C5.03486 7.33333 5.33333 7.63181 5.33333 8Z" fill="white"/>
  <path fill-rule="evenodd" clip-rule="evenodd" d="M2 12.6666C2 11.5621 2.89543 10.6666 4 10.6666H12C13.1046 10.6666 14 11.5621 14 12.6666C14 13.7712 13.1046 14.6666 12 14.6666H4C2.89543 14.6666 2 13.7712 2 12.6666ZM6.66667 12.6666C6.66667 12.2984 6.96514 12 7.33333 12H10.6667C11.0349 12 11.3333 12.2984 11.3333 12.6666C11.3333 13.0348 11.0349 13.3333 10.6667 13.3333H7.33333C6.96514 13.3333 6.66667 13.0348 6.66667 12.6666ZM5.33333 12.6666C5.33333 13.0348 5.03486 13.3333 4.66667 13.3333C4.29848 13.3333 4 13.0348 4 12.6666C4 12.2984 4.29848 12 4.66667 12C5.03486 12 5.33333 12.2984 5.33333 12.6666Z" fill="white"/>
</svg>