<svg width="17" height="16" viewBox="0 0 17 16" fill="none" xmlns="http://www.w3.org/2000/svg">
  <path opacity="0.3" fill-rule="evenodd" clip-rule="evenodd" d="M2.5 3.33337C2.5 2.2288 3.39543 1.33337 4.5 1.33337H12.5C13.6046 1.33337 14.5 2.2288 14.5 3.33337C14.5 4.43794 13.6046 5.33337 12.5 5.33337H4.5C3.39543 5.33337 2.5 4.43794 2.5 3.33337ZM7.16667 3.33337C7.16667 2.96518 7.46514 2.66671 7.83333 2.66671H11.1667C11.5349 2.66671 11.8333 2.96518 11.8333 3.33337C11.8333 3.70156 11.5349 4.00004 11.1667 4.00004H7.83333C7.46514 4.00004 7.16667 3.70156 7.16667 3.33337ZM5.83333 3.33337C5.83333 3.70156 5.53486 4.00004 5.16667 4.00004C4.79848 4.00004 4.5 3.70156 4.5 3.33337C4.5 2.96518 4.79848 2.66671 5.16667 2.66671C5.53486 2.66671 5.83333 2.96518 5.83333 3.33337Z" fill="#1890FF"/>
  <path fill-rule="evenodd" clip-rule="evenodd" d="M2.5 8C2.5 6.89543 3.39543 6 4.5 6H12.5C13.6046 6 14.5 6.89543 14.5 8C14.5 9.10457 13.6046 10 12.5 10H4.5C3.39543 10 2.5 9.10457 2.5 8ZM7.16667 8C7.16667 7.63181 7.46514 7.33333 7.83333 7.33333H11.1667C11.5349 7.33333 11.8333 7.63181 11.8333 8C11.8333 8.36819 11.5349 8.66667 11.1667 8.66667H7.83333C7.46514 8.66667 7.16667 8.36819 7.16667 8ZM5.83333 8C5.83333 8.36819 5.53486 8.66667 5.16667 8.66667C4.79848 8.66667 4.5 8.36819 4.5 8C4.5 7.63181 4.79848 7.33333 5.16667 7.33333C5.53486 7.33333 5.83333 7.63181 5.83333 8Z" fill="#1890FF"/>
  <path fill-rule="evenodd" clip-rule="evenodd" d="M2.5 12.6666C2.5 11.5621 3.39543 10.6666 4.5 10.6666H12.5C13.6046 10.6666 14.5 11.5621 14.5 12.6666C14.5 13.7712 13.6046 14.6666 12.5 14.6666H4.5C3.39543 14.6666 2.5 13.7712 2.5 12.6666ZM7.16667 12.6666C7.16667 12.2984 7.46514 12 7.83333 12H11.1667C11.5349 12 11.8333 12.2984 11.8333 12.6666C11.8333 13.0348 11.5349 13.3333 11.1667 13.3333H7.83333C7.46514 13.3333 7.16667 13.0348 7.16667 12.6666ZM5.83333 12.6666C5.83333 13.0348 5.53486 13.3333 5.16667 13.3333C4.79848 13.3333 4.5 13.0348 4.5 12.6666C4.5 12.2984 4.79848 12 5.16667 12C5.53486 12 5.83333 12.2984 5.83333 12.6666Z" fill="#1890FF"/>
</svg>