<svg width="16" height="16" viewBox="0 0 16 16" fill="none" xmlns="http://www.w3.org/2000/svg">
<path opacity="0.3" fill-rule="evenodd" clip-rule="evenodd" d="M8.00016 14.6667C11.6821 14.6667 14.6668 11.6819 14.6668 8.00004C14.6668 4.31814 11.6821 1.33337 8.00016 1.33337C4.31826 1.33337 1.3335 4.31814 1.3335 8.00004C1.3335 11.6819 4.31826 14.6667 8.00016 14.6667Z" fill="white"/>
<path d="M11.1793 5.21179C11.4305 4.94262 11.8524 4.92808 12.1216 5.1793C12.3907 5.43052 12.4053 5.85238 12.154 6.12155L7.48738 11.1215C7.24364 11.3827 6.83738 11.4053 6.56615 11.1728L4.23282 9.17284C3.95327 8.93323 3.92089 8.51236 4.16051 8.23281C4.40012 7.95326 4.82099 7.92088 5.10054 8.1605L6.94867 9.74461L11.1793 5.21179Z" fill="white"/>
</svg>
