<svg width="24" height="24" viewBox="0 0 24 24" fill="none" xmlns="http://www.w3.org/2000/svg">
  <path opacity="0.3" d="M2 13C2 12.5 2.5 12 3 12C3.5 12 4 12.5 4 13C4 13.5 4 18 4 18C4 19.1046 4.89543 20 6 20H18C19.1046 20 20 19.1046 20 18V13C20 12.4477 20.4477 12 21 12C21.5523 12 22 12.4477 22 13V18C22 20.2091 20.2091 22 18 22H6C3.79086 22 2 20.2091 2 18C2 18 2 13.5 2 13Z" fill="black"/>
  <rect opacity="0.3" x="13" y="15" width="2" height="14" rx="1" transform="rotate(-180 13 15)" fill="black"/>
  <path d="M16.2929 9.29289C16.6834 8.90237 17.3166 8.90237 17.7071 9.29289C18.0976 9.68342 18.0976 10.3166 17.7071 10.7071L12.7071 15.7071C12.331 16.0832 11.7264 16.0991 11.331 15.7433L6.33104 11.2433C5.92053 10.8738 5.88725 10.2415 6.25671 9.83103C6.62617 9.42052 7.25845 9.38724 7.66896 9.7567L11.9638 13.622L16.2929 9.29289Z" fill="black"/>
</svg>