<svg id="Icon_20px_download_1453_" data-name="Icon/20px/download [#1453]" xmlns="http://www.w3.org/2000/svg" xmlns:xlink="http://www.w3.org/1999/xlink" width="20" height="20" viewBox="0 0 20 20">
  <defs>
    <clipPath id="clip-path">
      <path id="download_1453_" data-name="download [#1453]" d="M18,20H2a2,2,0,0,1-2-2V2A2,2,0,0,1,2,0H18a2,2,0,0,1,2,2V18A2,2,0,0,1,18,20ZM3,2A1,1,0,0,0,2,3V17a1,1,0,0,0,1,1H17a1,1,0,0,0,1-1V3a1,1,0,0,0-1-1Zm7,13.46a1.994,1.994,0,0,1-1.374-.546l-2.84-2.686a1,1,0,0,1-.04-1.415,1,1,0,0,1,1.414-.04l1,.943a.49.49,0,0,0,.341.138.5.5,0,0,0,.5-.5V6a1,1,0,1,1,2,0v5.352a.49.49,0,0,0,.156.364.516.516,0,0,0,.348.138.484.484,0,0,0,.339-.138l1-.943a1,1,0,1,1,1.373,1.454l-2.84,2.686A2,2,0,0,1,10,15.459Z" fill="rgba(255,255,255,0)"/>
    </clipPath>
  </defs>
  <path id="download_1453_2" data-name="download [#1453]" d="M18,20H2a2,2,0,0,1-2-2V2A2,2,0,0,1,2,0H18a2,2,0,0,1,2,2V18A2,2,0,0,1,18,20ZM3,2A1,1,0,0,0,2,3V17a1,1,0,0,0,1,1H17a1,1,0,0,0,1-1V3a1,1,0,0,0-1-1Zm7,13.46a1.994,1.994,0,0,1-1.374-.546l-2.84-2.686a1,1,0,0,1-.04-1.415,1,1,0,0,1,1.414-.04l1,.943a.49.49,0,0,0,.341.138.5.5,0,0,0,.5-.5V6a1,1,0,1,1,2,0v5.352a.49.49,0,0,0,.156.364.516.516,0,0,0,.348.138.484.484,0,0,0,.339-.138l1-.943a1,1,0,1,1,1.373,1.454l-2.84,2.686A2,2,0,0,1,10,15.459Z" fill="rgba(255,255,255,0)"/>
  <g clip-path="url(#clip-path)">
    <g id="_Atoms_Colour_White" data-name="⚙️Atoms/Colour/White" transform="translate(-1 -1)">
      <rect id="_Atoms_Colour_White_background" data-name="⚙️Atoms/Colour/White background" width="22" height="22" fill="rgba(0,0,0,0)"/>
      <rect id="Rectangle" width="22" height="22" fill="#994cbd"/>
    </g>
  </g>
</svg>
