<svg width="298" height="334" viewBox="0 0 298 334" fill="none" xmlns="http://www.w3.org/2000/svg">
    <path opacity="0.3" d="M157.455 293.451C231.11 293.451 290.82 233.737 290.82 160.076C290.82 86.4152 231.11 26.7012 157.455 26.7012C83.7993 26.7012 24.0898 86.4152 24.0898 160.076C24.0898 233.737 83.7993 293.451 157.455 293.451Z" fill="url(#paint0_linear)"/>
    <path opacity="0.5" d="M278.59 225.817C289.309 225.817 297.999 217.127 297.999 206.407C297.999 195.687 289.309 186.997 278.59 186.997C267.871 186.997 259.182 195.687 259.182 206.407C259.182 217.127 267.871 225.817 278.59 225.817Z" fill="url(#paint1_linear)"/>
    <path opacity="0.3" d="M159.949 63.5583C177.498 63.5583 191.725 49.3303 191.725 31.7791C191.725 14.228 177.498 0 159.949 0C142.399 0 128.172 14.228 128.172 31.7791C128.172 49.3303 142.399 63.5583 159.949 63.5583Z" fill="url(#paint2_linear)"/>
    <path opacity="0.2" d="M259.182 318.407C266.073 318.407 271.659 312.82 271.659 305.929C271.659 299.037 266.073 293.451 259.182 293.451C252.291 293.451 246.705 299.037 246.705 305.929C246.705 312.82 252.291 318.407 259.182 318.407Z" fill="url(#paint3_linear)"/>
    <path opacity="0.3" d="M268.054 49.5255C272.954 49.5255 276.927 45.5528 276.927 40.6523C276.927 35.7518 272.954 31.7791 268.054 31.7791C263.154 31.7791 259.182 35.7518 259.182 40.6523C259.182 45.5528 263.154 49.5255 268.054 49.5255Z" fill="url(#paint4_linear)"/>
    <path d="M230.37 156.385C255.393 156.385 275.679 136.097 275.679 111.072C275.679 86.0464 255.393 65.7593 230.37 65.7593C205.346 65.7593 185.061 86.0464 185.061 111.072C185.061 136.097 205.346 156.385 230.37 156.385Z" fill="url(#paint5_linear)"/>
    <path d="M239.336 98.0999C239.867 97.5688 240.587 97.2704 241.338 97.2704C242.089 97.2704 242.809 97.5688 243.34 98.0999C243.871 98.631 244.17 99.3513 244.17 100.102C244.17 100.853 243.871 101.574 243.34 102.105L221.314 124.133C220.783 124.664 220.063 124.962 219.312 124.962C218.561 124.962 217.84 124.664 217.309 124.133C216.778 123.602 216.48 122.881 216.48 122.13C216.48 121.379 216.778 120.659 217.309 120.128L239.336 98.0999Z" fill="white"/>
    <path d="M243.34 120.128C243.871 120.659 244.17 121.379 244.17 122.13C244.17 122.881 243.871 123.602 243.34 124.133C242.809 124.664 242.089 124.962 241.338 124.962C240.587 124.962 239.867 124.664 239.336 124.133L217.309 102.105C216.778 101.574 216.48 100.854 216.48 100.102C216.48 99.3513 216.778 98.631 217.309 98.0999C217.84 97.5688 218.561 97.2704 219.312 97.2704C220.063 97.2704 220.783 97.5688 221.314 98.0999L243.34 120.128Z" fill="white"/>
    <path d="M133.273 202.415C123.408 199.264 99.8239 195.634 77.1803 199.811C66.402 201.799 61.5925 203.739 56.4057 213.361C44.9869 234.543 40.0782 247.115 40.0782 247.115L31.8265 214.867C22.826 209.829 16.4512 224.019 16.4512 224.019C16.4512 224.019 16.6595 262.098 21.0974 277.281C25.5352 292.463 38.3399 292.466 42.9499 287.069C65.0387 261.217 70.0001 252.604 70.0001 252.604C70.0001 252.604 74.2375 286.413 74.287 297.927C74.3357 309.231 72.1996 319.301 72.24 320.651C72.3625 324.74 68.3046 329.618 81.0106 331.375C93.7166 333.131 119.544 335.492 134.299 332.747C149.054 330.002 157.275 329.788 152.189 318.46C147.104 307.132 146.143 266.737 146.143 266.737L166.8 278.955C166.8 278.955 178.325 282.557 184.148 274.6C189.972 266.643 210.411 228.424 210.411 228.424C210.411 228.424 210.411 219.24 194.901 220.137L171.495 249.866L146.143 211.291C146.143 211.291 143.137 205.567 133.273 202.415Z" fill="url(#paint6_linear)"/>
    <path opacity="0.5" d="M70.6898 253.624C70.5179 253.605 70.3594 253.522 70.2459 253.391C70.1325 253.261 70.0723 253.092 70.0775 252.919C70.0826 252.746 70.1527 252.581 70.2737 252.458C70.3948 252.334 70.5579 252.261 70.7307 252.252C112.217 253.492 135.048 251.783 144.552 247.186C144.713 247.124 144.891 247.125 145.052 247.189C145.212 247.253 145.343 247.374 145.418 247.529C145.493 247.685 145.507 247.863 145.457 248.028C145.407 248.193 145.297 248.334 145.148 248.421C135.363 253.156 112.425 254.873 70.6898 253.624Z" fill="white"/>
    <path opacity="0.2" d="M138.943 258.637C140.08 258.637 141.002 257.715 141.002 256.578C141.002 255.441 140.08 254.52 138.943 254.52C137.806 254.52 136.885 255.441 136.885 256.578C136.885 257.715 137.806 258.637 138.943 258.637Z" fill="white"/>
    <path opacity="0.2" d="M123.505 261.382C124.642 261.382 125.563 260.46 125.563 259.323C125.563 258.186 124.642 257.264 123.505 257.264C122.368 257.264 121.446 258.186 121.446 259.323C121.446 260.46 122.368 261.382 123.505 261.382Z" fill="white"/>
    <path opacity="0.2" d="M108.067 262.098C109.204 262.098 110.126 261.176 110.126 260.039C110.126 258.902 109.204 257.98 108.067 257.98C106.93 257.98 106.009 258.902 106.009 260.039C106.009 261.176 106.93 262.098 108.067 262.098Z" fill="white"/>
    <path opacity="0.2" d="M92.5937 262.03C93.7306 262.03 94.6523 261.108 94.6523 259.971C94.6523 258.834 93.7306 257.912 92.5937 257.912C91.4568 257.912 90.5352 258.834 90.5352 259.971C90.5352 261.108 91.4568 262.03 92.5937 262.03Z" fill="white"/>
    <path opacity="0.2" d="M77.2959 261.61C78.4328 261.61 79.3544 260.689 79.3544 259.552C79.3544 258.415 78.4328 257.493 77.2959 257.493C76.1589 257.493 75.2373 258.415 75.2373 259.552C75.2373 260.689 76.1589 261.61 77.2959 261.61Z" fill="white"/>
    <path opacity="0.5" d="M69.3187 267.348C69.1468 267.329 68.9883 267.246 68.8748 267.115C68.7614 266.984 68.7012 266.816 68.7064 266.643C68.7115 266.47 68.7816 266.305 68.9026 266.182C69.0237 266.058 69.1868 265.985 69.3596 265.976C110.846 267.215 136.421 265.507 145.925 260.91C146.086 260.848 146.265 260.849 146.425 260.913C146.586 260.976 146.716 261.098 146.791 261.253C146.866 261.409 146.88 261.587 146.83 261.752C146.781 261.917 146.67 262.058 146.522 262.145C136.736 266.88 111.054 268.597 69.3187 267.348Z" fill="white"/>
    <path opacity="0.3" d="M194.848 220.075C194.848 220.075 196.487 231.563 203.213 231.563C209.939 231.563 212.655 224.622 212.655 224.622L198.139 215.945L194.848 220.075Z" fill="#373A5B"/>
    <path opacity="0.3" d="M16.0231 223.907C16.0231 223.907 21.1561 227.492 26.3837 222.702C31.6113 217.913 32.3951 212.875 32.3951 212.875H21.5751L14.668 217.34L16.0231 223.907Z" fill="#373A5B"/>
    <path d="M94.0298 156.869C94.0298 156.869 94.033 146.454 105.496 147.461C110.293 147.881 125.395 144.559 130.223 149.205C135.051 153.85 131.382 169.305 124.574 173.841C117.767 178.377 116.779 172.804 109.474 170.791C102.17 168.779 97.1892 188.483 97.1892 188.483C97.1892 188.483 93.2047 187.978 92.2241 185.805C85.5749 171.082 85.9567 158.623 89.9756 156.867C91.0048 156.419 94.0298 156.869 94.0298 156.869Z" fill="url(#paint7_linear)"/>
    <path d="M92.2236 198.976C92.2236 198.976 98.8646 206.14 105.004 206.14C111.144 206.14 113.783 198.976 113.783 198.976L112.247 189.757L95.8832 181.243L92.2236 198.976Z" fill="url(#paint8_linear)"/>
    <path d="M101.31 160.874C107.597 163.144 122.433 163.913 127.115 160.874C126.224 184.049 122.481 195.636 116.545 195.636C107.639 195.636 97.909 191.079 95.6656 181.505C95.6411 181.401 95.6172 181.298 95.594 181.195C94.7223 181.319 93.8333 181.207 93.0197 180.87C92.206 180.534 91.4974 179.985 90.9677 179.282C90.4379 178.579 90.1064 177.746 90.0077 176.871C89.9089 175.996 90.0465 175.111 90.4061 174.307C90.7657 173.504 91.3342 172.811 92.0524 172.302C92.7705 171.792 93.6121 171.485 94.4895 171.411C95.3669 171.337 96.2479 171.5 97.0409 171.883C97.834 172.265 98.5099 172.854 98.9984 173.586C99.4959 173.816 101.413 166.465 101.31 160.874Z" fill="url(#paint9_linear)"/>
    <path opacity="0.2" d="M127.118 160.874C127.118 160.874 118.996 167.921 111.414 166.364C103.833 164.808 105.474 176.267 99.1719 173.267L101.73 158.253L127.118 160.874Z" fill="#DA433D"/>
    <path d="M200.48 210.982C204.963 207.947 206.509 204.056 208.126 206.001C209.743 207.946 206.423 212.726 206.423 212.726C206.423 212.726 217.388 212.792 219.777 207.947C221.261 204.936 224.365 204.282 224.46 206.001C224.519 207.049 221.304 212.312 220.975 213.423C220.107 216.356 220.745 217.765 214.906 220.938C209.068 224.11 203.557 231.573 203.557 231.573C203.557 231.573 201.364 232.193 198.673 230.169C195.982 228.145 194.864 220.938 194.864 220.938C194.864 220.938 195.997 214.018 200.48 210.982Z" fill="url(#paint10_linear)"/>
    <path opacity="0.2" d="M194.848 219.737C194.848 219.737 198.728 230.598 208.069 228.867L203.555 233.664L194.848 230.066V219.737Z" fill="#DA433D"/>
    <path d="M23.9811 204.121C26.9698 206.145 30.248 212.192 31.002 216.805C30.1333 219.237 27.5787 221.955 25.7891 223.307C23.9994 224.66 21.6954 225.582 20.2063 225.444C16.5306 220.467 13.4451 216.191 9.55422 214.076C3.71676 210.903 4.35324 209.494 3.48732 206.561C3.15738 205.451 -0.0584724 200.187 -0.000194169 199.14C0.0975481 197.42 3.1996 198.074 4.68409 201.085C6.27642 204.316 10.7276 205.909 18.0376 205.865C15.8236 202.679 15.2565 200.437 16.3361 199.14C17.9523 197.195 19.4982 201.085 23.9811 204.121Z" fill="url(#paint11_linear)"/>
    <path opacity="0.2" d="M32.3942 213.845C32.3942 213.845 25.7922 223.736 16.4512 222.006L20.9652 226.802L29.6725 223.204L32.3942 213.845Z" fill="#DA433D"/>
    <defs>
        <linearGradient id="paint0_linear" x1="81.4368" y1="273.711" x2="211.883" y2="5.10215" gradientUnits="userSpaceOnUse">
            <stop stop-color="#39ABC5"/>
            <stop offset="1" stop-color="#A8EB9D"/>
        </linearGradient>
        <linearGradient id="paint1_linear" x1="255.999" y1="236.259" x2="294.043" y2="187" gradientUnits="userSpaceOnUse">
            <stop stop-color="#FFCFAA"/>
            <stop offset="1" stop-color="#FA6EB9"/>
        </linearGradient>
        <linearGradient id="paint2_linear" x1="131.604" y1="63.5583" x2="181.562" y2="-4.69978" gradientUnits="userSpaceOnUse">
            <stop stop-color="#46E5F2"/>
            <stop offset="1" stop-color="#9E66FF"/>
        </linearGradient>
        <linearGradient id="paint3_linear" x1="251.796" y1="325.42" x2="270.189" y2="300.615" gradientUnits="userSpaceOnUse">
            <stop stop-color="#6F4DE2"/>
            <stop offset="1" stop-color="#FF7C7C"/>
        </linearGradient>
        <linearGradient id="paint4_linear" x1="266.102" y1="45.0534" x2="259.11" y2="31.3359" gradientUnits="userSpaceOnUse">
            <stop stop-color="#37CEDB"/>
            <stop offset="1" stop-color="#3488ED"/>
        </linearGradient>
        <linearGradient id="paint5_linear" x1="246.5" y1="65.7593" x2="191.126" y2="156.381" gradientUnits="userSpaceOnUse">
            <stop stop-color="#FFB782"/>
            <stop offset="1" stop-color="#EB4878"/>
        </linearGradient>
        <linearGradient id="paint6_linear" x1="100.824" y1="321.619" x2="137.155" y2="189.017" gradientUnits="userSpaceOnUse">
            <stop stop-color="#5D63D3"/>
            <stop offset="1" stop-color="#B986FF"/>
        </linearGradient>
        <linearGradient id="paint7_linear" x1="98.4526" y1="173.984" x2="137.616" y2="137.885" gradientUnits="userSpaceOnUse">
            <stop stop-color="#321847"/>
            <stop offset="1" stop-color="#834A88"/>
        </linearGradient>
        <linearGradient id="paint8_linear" x1="105.181" y1="187.169" x2="89.5874" y2="206.671" gradientUnits="userSpaceOnUse">
            <stop stop-color="#F68585"/>
            <stop offset="1" stop-color="#FF9B92"/>
        </linearGradient>
        <linearGradient id="paint9_linear" x1="93.3561" y1="199.425" x2="120.4" y2="167.368" gradientUnits="userSpaceOnUse">
            <stop stop-color="#FF9292"/>
            <stop offset="1" stop-color="#FFB59D"/>
        </linearGradient>
        <linearGradient id="paint10_linear" x1="197.558" y1="234.561" x2="218.09" y2="209.209" gradientUnits="userSpaceOnUse">
            <stop stop-color="#FF9292"/>
            <stop offset="1" stop-color="#FFB59D"/>
        </linearGradient>
        <linearGradient id="paint11_linear" x1="2.82029" y1="228.428" x2="23.7593" y2="201.998" gradientUnits="userSpaceOnUse">
            <stop stop-color="#FF9292"/>
            <stop offset="1" stop-color="#FFB59D"/>
        </linearGradient>
    </defs>
</svg>