<svg width="16" height="16" viewBox="0 0 16 16" fill="none" xmlns="http://www.w3.org/2000/svg">
<path opacity="0.3" fill-rule="evenodd" clip-rule="evenodd" d="M4.34718 1.19919C4.08308 0.884438 3.57313 1.00491 3.4778 1.40457L2.85426 4.0187C2.77659 4.34435 3.03466 4.65285 3.36891 4.63391L6.05809 4.48152C6.469 4.45823 6.67738 3.9762 6.41283 3.66092L5.83266 2.96951C6.41502 2.77054 7.03255 2.66661 7.66663 2.66661C10.7962 2.66661 13.3333 5.20367 13.3333 8.33328C13.3333 11.4629 10.7962 13.9999 7.66663 13.9999C4.53701 13.9999 1.99996 11.4629 1.99996 8.33328C1.99996 7.8079 2.07111 7.29332 2.20983 6.79875L0.926048 6.43865C0.757022 7.04124 0.666626 7.6767 0.666626 8.33328C0.666626 12.1993 3.80063 15.3333 7.66663 15.3333C11.5326 15.3333 14.6666 12.1993 14.6666 8.33328C14.6666 4.46729 11.5326 1.33328 7.66663 1.33328C6.69427 1.33328 5.76823 1.53153 4.9267 1.88983L4.34718 1.19919Z" fill="black"/>
<path fill-rule="evenodd" clip-rule="evenodd" d="M6.33329 6.99992C6.33329 6.07944 7.07948 5.33325 7.99996 5.33325C8.92043 5.33325 9.66663 6.07944 9.66663 6.99992V7.39015C10.055 7.52743 10.3333 7.89785 10.3333 8.33325V9.66659C10.3333 10.2189 9.88558 10.6666 9.33329 10.6666H6.66663C6.11434 10.6666 5.66663 10.2189 5.66663 9.66659V8.33325C5.66663 7.89784 5.9449 7.52743 6.33329 7.39015V6.99992ZM7.99996 5.99992C7.44767 5.99992 6.99996 6.44763 6.99996 6.99992V7.33325H8.99996V6.99992C8.99996 6.44763 8.55224 5.99992 7.99996 5.99992Z" fill="black"/>
</svg>
