<svg width="16" height="16" viewBox="0 0 16 16" fill="none" xmlns="http://www.w3.org/2000/svg">
  <path fill-rule="evenodd" clip-rule="evenodd" d="M4.45687 4.84783C4.72499 5.10017 4.73777 5.52209 4.48543 5.7902L2.24879 8.16663L4.48543 10.5431C4.73777 10.8112 4.72499 11.2331 4.45687 11.4854C4.18875 11.7378 3.76684 11.725 3.51449 11.4569L0.847826 8.62354C0.606226 8.36684 0.606226 7.96642 0.847826 7.70972L3.51449 4.87638C3.76684 4.60827 4.18875 4.59548 4.45687 4.84783ZM11.5431 4.84783C11.2749 5.10018 11.2622 5.52209 11.5145 5.79021L13.7511 8.16663L11.5145 10.5431C11.2622 10.8112 11.2749 11.2331 11.5431 11.4854C11.8112 11.7378 12.2331 11.725 12.4854 11.4569L15.1521 8.62354C15.3937 8.36684 15.3937 7.96642 15.1521 7.70972L12.4854 4.87639C12.2331 4.60827 11.8112 4.59549 11.5431 4.84783Z" fill="#1890FF"/>
  <rect opacity="0.3" x="8.73608" y="2.6759" width="1.33333" height="10.6667" rx="0.666667" transform="rotate(15 8.73608 2.6759)" fill="#1890FF"/>
</svg>