<svg width="25" height="24" viewBox="0 0 25 24" fill="none" xmlns="http://www.w3.org/2000/svg">
  <path fill-rule="evenodd" clip-rule="evenodd" d="M7.09286 7.2718C7.49927 7.65032 7.51865 8.28319 7.13615 8.68537L3.74589 12.25L7.13615 15.8146C7.51865 16.2168 7.49927 16.8497 7.09286 17.2282C6.68646 17.6067 6.04692 17.5875 5.66442 17.1854L1.62232 12.9354C1.2561 12.5503 1.2561 11.9497 1.62232 11.5646L5.66442 7.31464C6.04692 6.91246 6.68646 6.89329 7.09286 7.2718ZM17.834 7.27181C17.4276 7.65032 17.4082 8.2832 17.7907 8.68537L21.181 12.25L17.7907 15.8146C17.4082 16.2168 17.4276 16.8497 17.834 17.2282C18.2404 17.6067 18.88 17.5875 19.2625 17.1854L23.3046 12.9354C23.6708 12.5503 23.6708 11.9497 23.3046 11.5646L19.2625 7.31464C18.88 6.91247 18.2404 6.89329 17.834 7.27181Z" fill="black"/>
  <rect opacity="0.3" width="2.01965" height="16.0113" rx="1" transform="matrix(0.966597 0.256301 -0.261358 0.965242 13.5796 4.01379)" fill="black"/>
</svg>