<svg width="17" height="16" viewBox="0 0 17 16" fill="none" xmlns="http://www.w3.org/2000/svg">
  <path fill-rule="evenodd" clip-rule="evenodd" d="M4.9569 4.84783C5.22502 5.10017 5.2378 5.52209 4.98546 5.7902L2.74882 8.16663L4.98546 10.5431C5.2378 10.8112 5.22502 11.2331 4.9569 11.4854C4.68878 11.7378 4.26687 11.725 4.01452 11.4569L1.34786 8.62354C1.10626 8.36684 1.10626 7.96642 1.34786 7.70972L4.01452 4.87638C4.26687 4.60827 4.68878 4.59548 4.9569 4.84783ZM12.0431 4.84783C11.775 5.10018 11.7622 5.52209 12.0145 5.79021L14.2512 8.16663L12.0145 10.5431C11.7622 10.8112 11.775 11.2331 12.0431 11.4854C12.3112 11.7378 12.7331 11.725 12.9855 11.4569L15.6521 8.62354C15.8937 8.36684 15.8937 7.96642 15.6521 7.70972L12.9855 4.87639C12.7331 4.60827 12.3112 4.59549 12.0431 4.84783Z" fill="#F5222D"/>
  <rect opacity="0.3" x="9.23615" y="2.6759" width="1.33333" height="10.6667" rx="0.666667" transform="rotate(15 9.23615 2.6759)" fill="#F5222D"/>
</svg>