<svg width="19" height="21" viewBox="0 0 19 21" fill="none" xmlns="http://www.w3.org/2000/svg">
  <path fill-rule="evenodd" clip-rule="evenodd" d="M2.70004 2.54443C2.70004 1.16372 3.81932 0.0444336 5.20004 0.0444336H13.1167C14.4974 0.0444336 15.6167 1.16372 15.6167 2.54443V7.79443H17.2C17.7523 7.79443 18.2 8.24215 18.2 8.79443V19.7111C18.2 20.2634 17.7523 20.7111 17.2 20.7111H1.1167C0.564415 20.7111 0.116699 20.2634 0.116699 19.7111V8.79443C0.116699 8.24215 0.564414 7.79443 1.1167 7.79443H2.70004V2.54443ZM6.78337 2.62777C5.95494 2.62777 5.28337 3.29934 5.28337 4.12776V7.79443H13.0334V4.12777C13.0334 3.29934 12.3618 2.62777 11.5334 2.62777H6.78337Z" fill="white"/>
</svg>