<svg xmlns="http://www.w3.org/2000/svg" width="25.974" height="27.531" viewBox="0 0 25.974 27.531">
  <g id="letsencrypt-logo-horizontal" transform="translate(-0.383 -0.25)">
    <g id="svg_16" transform="translate(7.412 7.412)">
      <path id="svg_17" d="M11.545,7.473H8.235v-1.7a2.462,2.462,0,0,0-4.924,0v1.7H0v-1.7a5.773,5.773,0,0,1,11.546,0v1.7h0Z" transform="translate(0.185 0.173)" fill="#f9a11d"/>
    </g>
    <path id="svg_18" d="M15.32,12.723H1.1A1.1,1.1,0,0,1,0,11.62V1.1A1.1,1.1,0,0,1,1.1,0H15.32a1.1,1.1,0,0,1,1.1,1.1V11.62A1.1,1.1,0,0,1,15.32,12.723ZM8.212,4.171a1.462,1.462,0,0,0-.72,2.735V8.33a.72.72,0,0,0,1.44,0V6.9a1.462,1.462,0,0,0-.72-2.734Z" transform="translate(5.158 15.057)" fill="#2c3c69"/>
    <path id="svg_19" d="M4.438,2.014H1.007A1.007,1.007,0,1,1,1.007,0h3.43a1.007,1.007,0,0,1,0,2.014Z" transform="translate(0.383 11.475)" fill="#f9a11d"/>
    <path id="svg_20" d="M3.72,4.246a1,1,0,0,1-.639-.229L.367,1.785A1.007,1.007,0,0,1,1.647.229L4.361,2.461A1.008,1.008,0,0,1,3.72,4.246Z" transform="translate(3.517 3.847)" fill="#f9a11d"/>
    <path id="svg_21" d="M1.007,5.472A1.007,1.007,0,0,1,0,4.465V1.007a1.007,1.007,0,0,1,2.014,0V4.465A1.007,1.007,0,0,1,1.007,5.472Z" transform="translate(12.362 0.25)" fill="#f9a11d"/>
    <g id="svg_22" transform="translate(18.118 3.706)">
      <g id="svg_23">
        <path id="svg_24" d="M1.008,4.246A1.008,1.008,0,0,1,.367,2.461L3.081.229a1.007,1.007,0,0,1,1.28,1.556L1.647,4.017a1,1,0,0,1-.639.229Z" transform="translate(0.377 0.141)" fill="#f9a11d"/>
      </g>
    </g>
    <path id="svg_25" d="M4.47,2.014H1.007A1.007,1.007,0,0,1,1.007,0H4.47a1.007,1.007,0,0,1,0,2.014Z" transform="translate(20.879 11.475)" fill="#f9a11d"/>
  </g>
</svg>
