<svg width="25" height="24" viewBox="0 0 25 24" fill="none" xmlns="http://www.w3.org/2000/svg">
  <path opacity="0.3" fill-rule="evenodd" clip-rule="evenodd" d="M12.183 22C7.17055 22 3.10718 17.9706 3.10718 13C3.10718 8.02944 7.17055 4 12.183 4C17.1954 4 21.2588 8.02944 21.2588 13C21.2588 17.9706 17.1954 22 12.183 22Z" fill="black"/>
  <path fill-rule="evenodd" clip-rule="evenodd" d="M11.643 7.96133C11.6632 7.70097 11.8804 7.5 12.1415 7.5H12.2351C12.4919 7.5 12.7069 7.69441 12.7326 7.94983L13.1915 12.5L16.4674 14.3564C16.6241 14.4451 16.7209 14.6113 16.7209 14.7914V14.8468C16.7209 15.1761 16.4082 15.4154 16.0904 15.3295L11.5746 14.1082C11.3426 14.0454 11.1881 13.8265 11.2067 13.5869L11.643 7.96133Z" fill="black"/>
</svg>