<svg width="12" height="13" viewBox="0 0 12 13" fill="none" xmlns="http://www.w3.org/2000/svg">
<path fill-rule="evenodd" clip-rule="evenodd" d="M1.625 2.5C1.625 1.11929 2.74429 0 4.125 0H7.25C8.63071 0 9.75 1.11929 9.75 2.5V4.875H10.375C10.9273 4.875 11.375 5.32272 11.375 5.875V12C11.375 12.5523 10.9273 13 10.375 13H1C0.447715 13 0 12.5523 0 12V5.875C0 5.32272 0.447715 4.875 1 4.875H1.625V2.5ZM4.75 1.625C3.92157 1.625 3.25 2.29657 3.25 3.125V4.875H8.125V3.125C8.125 2.29657 7.45343 1.625 6.625 1.625H4.75Z" fill="black"/>
</svg>
