<svg width="336" height="198" viewBox="0 0 336 198" fill="none" xmlns="http://www.w3.org/2000/svg">
  <g clip-path="url(#clip0)">
    <path opacity="0.317" d="M29.113 5.22678e-06H253.303C254.547 -0.00130148 255.779 0.242415 256.928 0.717238C258.078 1.19206 259.122 1.88869 260.003 2.76736C260.883 3.64603 261.582 4.68952 262.059 5.83826C262.536 6.987 262.782 8.21849 262.784 9.46242V151.469C262.782 152.713 262.536 153.945 262.059 155.093C261.582 156.242 260.883 157.285 260.003 158.164C259.122 159.043 258.078 159.739 256.928 160.214C255.779 160.689 254.547 160.933 253.303 160.932H29.113C27.8693 160.933 26.6376 160.689 25.4881 160.214C24.3386 159.739 23.2939 159.043 22.4136 158.164C21.5333 157.285 20.8346 156.242 20.3575 155.093C19.8804 153.945 19.6341 152.713 19.6328 151.469V9.46242C19.6341 8.21849 19.8804 6.987 20.3575 5.83826C20.8346 4.68952 21.5333 3.64603 22.4136 2.76736C23.2939 1.88869 24.3386 1.19206 25.4881 0.717238C26.6376 0.242415 27.8693 -0.00130148 29.113 5.22678e-06Z" fill="url(#paint0_linear)"/>
    <path d="M191.497 67.8082C190.762 67.824 190.05 67.5472 189.519 67.0386C188.987 66.53 188.68 65.8313 188.663 65.0959C188.68 64.3605 188.987 63.6618 189.519 63.1532C190.05 62.6446 190.762 62.3678 191.497 62.3836H219.274C220.009 62.3678 220.721 62.6446 221.252 63.1532C221.783 63.6618 222.091 64.3605 222.108 65.0959C222.091 65.8313 221.783 66.53 221.252 67.0386C220.721 67.5472 220.009 67.824 219.274 67.8082H191.497Z" fill="white"/>
    <path d="M191.517 85.8904C190.779 85.9089 190.064 85.6336 189.529 85.125C188.994 84.6164 188.682 83.9161 188.663 83.1781C188.682 82.44 188.994 81.7398 189.529 81.2312C190.064 80.7226 190.779 80.4473 191.517 80.4657H238.236C238.974 80.4473 239.689 80.7226 240.224 81.2312C240.759 81.7398 241.07 82.44 241.09 83.1781C241.07 83.9161 240.759 84.6164 240.224 85.125C239.689 85.6336 238.974 85.9089 238.236 85.8904H191.517Z" fill="#C9A1F2"/>
    <path opacity="0.1" d="M56.2194 59.6957H157.511C159.187 59.694 160.795 60.3581 161.982 61.542C163.168 62.7259 163.836 64.3327 163.839 66.009V129.146C163.836 130.822 163.168 132.429 161.982 133.613C160.795 134.797 159.187 135.461 157.511 135.459H56.2194C54.5435 135.461 52.9354 134.797 51.7489 133.613C50.5624 132.429 49.8945 130.822 49.8921 129.146V66.009C49.8945 64.3327 50.5624 62.7259 51.7489 61.542C52.9354 60.3581 54.5435 59.694 56.2194 59.6957Z" fill="#373A5B"/>
    <path d="M56.2194 53.3822H157.511C159.187 53.3806 160.795 54.0447 161.982 55.2286C163.168 56.4125 163.836 58.0193 163.839 59.6956V122.832C163.836 124.509 163.168 126.115 161.982 127.299C160.795 128.483 159.187 129.147 157.511 129.146H56.2194C54.5435 129.147 52.9354 128.483 51.7489 127.299C50.5624 126.115 49.8945 124.509 49.8921 122.832V59.6956C49.8945 58.0193 50.5624 56.4125 51.7489 55.2286C52.9354 54.0447 54.5435 53.3806 56.2194 53.3822Z" fill="white"/>
    <path d="M70.5573 95.7877C69.804 95.7877 69.0815 95.4884 68.5488 94.9555C68.0161 94.4227 67.7168 93.7 67.7168 92.9465C67.7168 92.193 68.0161 91.4703 68.5488 90.9375C69.0815 90.4047 69.804 90.1054 70.5573 90.1054C75.2793 90.1054 77.3556 88.1263 81.2813 81.2523L81.3988 81.0471C86.3242 72.4201 89.834 69.1165 97.5425 69.1165C104.689 69.1165 108.761 71.0151 115.029 75.9117L115.687 76.4253C120.587 80.246 123.214 81.5028 127.908 81.5028C132.776 81.5028 136.268 79.6674 138.716 75.8692C139.131 75.2496 139.772 74.8173 140.502 74.6653C141.231 74.5133 141.992 74.6536 142.619 75.0562C143.246 75.4588 143.691 76.0914 143.857 76.8182C144.023 77.5451 143.897 78.308 143.507 78.9432C139.997 84.3914 134.688 87.1815 127.908 87.1815C121.653 87.1815 117.981 85.432 112.172 80.9006L111.514 80.3862C106.156 76.2029 103.149 74.7988 97.5389 74.7988C92.5322 74.7988 90.3411 76.8611 86.3458 83.8562L86.2292 84.0614C81.3707 92.5736 78.0019 95.7877 70.5573 95.7877Z" fill="#FB8FB4"/>
    <path d="M136.205 72.6886C136.216 70.5894 137.06 68.5806 138.552 67.104C140.044 65.6274 142.061 64.8039 144.159 64.8147C146.258 64.8039 148.275 65.6274 149.767 67.104C151.259 68.5806 152.103 70.5894 152.114 72.6886C152.103 74.7876 151.258 76.7962 149.767 78.2726C148.275 79.7491 146.258 80.5724 144.159 80.5616C142.061 80.5724 140.044 79.7491 138.552 78.2726C137.061 76.7962 136.216 74.7876 136.205 72.6886Z" fill="#FB8FB4"/>
    <path d="M67.5817 112.473C66.8284 112.473 66.1059 112.174 65.5732 111.641C65.0405 111.108 64.7412 110.385 64.7412 109.632C64.7412 108.878 65.0405 108.156 65.5732 107.623C66.1059 107.09 66.8284 106.791 67.5817 106.791H86.0124C86.7657 106.791 87.4882 107.09 88.0209 107.623C88.5536 108.156 88.8529 108.878 88.8529 109.632C88.8529 110.385 88.5536 111.108 88.0209 111.641C87.4882 112.174 86.7657 112.473 86.0124 112.473H67.5817Z" fill="#D9EFF3"/>
    <path opacity="0.2" d="M29.113 -5.7969e-07H253.303C255.803 -0.014189 258.206 0.965388 259.984 2.72327C261.762 4.48116 262.769 6.87339 262.784 9.37381V26.2192H19.6328V9.37381C19.6474 6.87339 20.6543 4.48116 22.4322 2.72327C24.21 0.965388 26.6131 -0.014189 29.113 -5.7969e-07Z" fill="white"/>
    <path d="M39.067 16.274C40.8142 16.274 42.2307 14.8572 42.2307 13.1096C42.2307 11.3619 40.8142 9.94519 39.067 9.94519C37.3197 9.94519 35.9033 11.3619 35.9033 13.1096C35.9033 14.8572 37.3197 16.274 39.067 16.274Z" fill="#FF769A"/>
    <path d="M51.7213 16.274C53.4685 16.274 54.885 14.8572 54.885 13.1096C54.885 11.3619 53.4685 9.94519 51.7213 9.94519C49.974 9.94519 48.5576 11.3619 48.5576 13.1096C48.5576 14.8572 49.974 16.274 51.7213 16.274Z" fill="#FFC827"/>
    <path d="M65.2799 16.274C67.0271 16.274 68.4436 14.8572 68.4436 13.1096C68.4436 11.3619 67.0271 9.94519 65.2799 9.94519C63.5326 9.94519 62.1162 11.3619 62.1162 13.1096C62.1162 14.8572 63.5326 16.274 65.2799 16.274Z" fill="#66BF5B"/>
    <path d="M12.2146 93.1386H26.8172C27.2954 93.1393 27.7557 93.3212 28.1052 93.6477L37.3197 102.227C37.5147 102.409 37.6702 102.63 37.7764 102.874C37.8827 103.119 37.9373 103.384 37.937 103.651V125.349C37.94 125.769 37.8602 126.186 37.7023 126.575C37.5443 126.964 37.3112 127.319 37.0163 127.618C36.7215 127.917 36.3706 128.155 35.9837 128.319C35.5969 128.482 35.1816 128.568 34.7616 128.571H12.2146C11.367 128.565 10.5565 128.222 9.9611 127.619C9.3657 127.016 9.03409 126.201 9.03914 125.353V96.36C9.03616 95.9399 9.11594 95.5234 9.27391 95.1341C9.43188 94.7449 9.66495 94.3906 9.95982 94.0915C10.2547 93.7924 10.6056 93.5542 10.9924 93.3908C11.3793 93.2273 11.7946 93.1416 12.2146 93.1386V93.1386Z" fill="url(#paint1_linear)"/>
    <path d="M30.3088 67.8932H44.9114C45.3897 67.8938 45.8499 68.0757 46.1995 68.4022L55.4139 76.9813C55.609 77.1636 55.7645 77.3841 55.8707 77.629C55.9769 77.874 56.0316 78.1382 56.0313 78.4053V100.104C56.0342 100.524 55.9545 100.941 55.7965 101.33C55.6385 101.719 55.4055 102.073 55.1106 102.372C54.8157 102.672 54.4648 102.91 54.078 103.073C53.6911 103.237 53.2758 103.322 52.8558 103.325H30.3088C29.4613 103.319 28.6507 102.977 28.0553 102.374C27.4599 101.77 27.1283 100.955 27.1334 100.108V71.1145C27.1304 70.6945 27.2102 70.2779 27.3681 69.8887C27.5261 69.4995 27.7592 69.1452 28.0541 68.846C28.3489 68.5469 28.6998 68.3088 29.0867 68.1453C29.4736 67.9818 29.8888 67.8961 30.3088 67.8932V67.8932Z" fill="url(#paint2_linear)"/>
    <path d="M3.1755 103.084H17.7781C18.2564 103.085 18.7166 103.266 19.0662 103.593L28.2806 112.172C28.4757 112.354 28.6312 112.575 28.7374 112.82C28.8436 113.065 28.8983 113.329 28.898 113.596V135.295C28.9009 135.715 28.8212 136.131 28.6632 136.52C28.5052 136.91 28.2722 137.264 27.9773 137.563C27.6824 137.862 27.3315 138.1 26.9447 138.264C26.5578 138.427 26.1425 138.513 25.7225 138.516H3.1755C2.32796 138.51 1.51745 138.168 0.922041 137.564C0.326633 136.961 -0.00497141 136.146 8.04079e-05 135.298V106.305C-0.00289766 105.885 0.0768759 105.469 0.234846 105.079C0.392816 104.69 0.625889 104.336 0.920756 104.037C1.21562 103.738 1.56651 103.499 1.95338 103.336C2.34025 103.172 2.75553 103.087 3.1755 103.084V103.084Z" fill="url(#paint3_linear)"/>
    <path d="M6.21792 126.148C6.04323 126.146 5.87624 126.076 5.75356 125.951C5.63088 125.827 5.56253 125.659 5.56349 125.484C5.56229 125.309 5.63053 125.141 5.75324 125.016C5.87594 124.892 6.04307 124.821 6.21792 124.82H14.5122C14.687 124.821 14.8541 124.892 14.9768 125.016C15.0996 125.141 15.1678 125.309 15.1666 125.484C15.1678 125.659 15.0996 125.827 14.9768 125.952C14.8541 126.076 14.687 126.147 14.5122 126.149L6.21792 126.148Z" fill="white"/>
    <path d="M6.21792 131.25C6.04323 131.248 5.87624 131.178 5.75356 131.053C5.63088 130.929 5.56253 130.761 5.56349 130.586C5.56229 130.411 5.63053 130.243 5.75324 130.118C5.87594 129.994 6.04307 129.923 6.21792 129.921H22.8986C23.0731 129.923 23.2398 129.994 23.3621 130.119C23.4844 130.243 23.5524 130.411 23.5512 130.586C23.5524 130.761 23.4842 130.929 23.3615 131.054C23.2388 131.178 23.0716 131.249 22.8968 131.251L6.21792 131.25Z" fill="#FBBDC6"/>
    <path d="M21.2697 77.8384H35.8723C36.3506 77.8391 36.8109 78.0209 37.1604 78.3474L46.3748 86.9265C46.5699 87.1088 46.7254 87.3293 46.8316 87.5743C46.9378 87.8192 46.9925 88.0835 46.9922 88.3505V110.049C46.9952 110.469 46.9154 110.886 46.7574 111.275C46.5995 111.664 46.3664 112.018 46.0715 112.318C45.7767 112.617 45.4258 112.855 45.0389 113.018C44.652 113.182 44.2367 113.267 43.8168 113.27H21.2697C20.4222 113.264 19.6117 112.922 19.0163 112.319C18.4209 111.716 18.0893 110.9 18.0943 110.053V81.0598C18.0913 80.6397 18.1711 80.2231 18.3291 79.8339C18.4871 79.4447 18.7201 79.0904 19.015 78.7913C19.3099 78.4921 19.6607 78.254 20.0476 78.0905C20.4345 77.927 20.8498 77.8414 21.2697 77.8384V77.8384Z" fill="url(#paint4_linear)"/>
    <path d="M287.189 198C314.146 198 336 176.142 336 149.178C336 122.214 314.146 100.356 287.189 100.356C260.231 100.356 238.378 122.214 238.378 149.178C238.378 176.142 260.231 198 287.189 198Z" fill="url(#paint5_linear)"/>
    <path d="M272.205 170.251C271.405 170.254 270.612 170.1 269.871 169.797C269.13 169.494 268.457 169.047 267.889 168.484C267.32 167.92 266.869 167.25 266.56 166.512C266.25 165.773 266.09 164.981 266.086 164.181V145.969C266.09 145.169 266.25 144.377 266.56 143.639C266.869 142.9 267.32 142.23 267.889 141.667C268.457 141.103 269.13 140.657 269.871 140.354C270.612 140.05 271.405 139.896 272.205 139.899H275.265V134.687C275.292 131.459 276.594 128.372 278.886 126.1C281.178 123.827 284.275 122.551 287.502 122.551C290.73 122.551 293.827 123.827 296.119 126.1C298.41 128.372 299.712 131.459 299.74 134.687V139.899H302.799C303.599 139.896 304.392 140.05 305.133 140.354C305.873 140.657 306.547 141.103 307.115 141.667C307.683 142.23 308.135 142.9 308.444 143.639C308.754 144.377 308.915 145.169 308.918 145.969V164.181C308.915 164.981 308.754 165.773 308.444 166.512C308.135 167.25 307.683 167.92 307.115 168.484C306.547 169.047 305.873 169.494 305.133 169.797C304.392 170.1 303.599 170.254 302.799 170.251H272.205ZM293.62 139.899V134.687C293.601 133.077 292.947 131.539 291.802 130.407C290.657 129.275 289.111 128.641 287.501 128.641C285.891 128.641 284.346 129.275 283.201 130.407C282.055 131.539 281.402 133.077 281.382 134.687V139.899H293.62Z" fill="white"/>
    <path opacity="0.586" d="M281.862 20.7945H262.575V20.7873C260.941 20.7103 259.398 20.0128 258.261 18.8371C257.124 17.6615 256.478 16.0961 256.455 14.4604C256.432 12.8246 257.033 11.2417 258.137 10.0344C259.241 8.82712 260.763 8.08643 262.394 7.96339C262.923 5.69264 264.206 3.66821 266.033 2.22024C267.86 0.772262 270.124 -0.0138276 272.455 -0.0098421C274.786 -0.00585658 277.047 0.787969 278.869 2.24218C280.692 3.6964 281.967 5.7252 282.489 7.99775C284.095 8.19961 285.566 9.00088 286.608 10.2412C287.649 11.4815 288.183 13.0693 288.104 14.6869C288.024 16.3044 287.337 17.8324 286.18 18.9649C285.022 20.0973 283.48 20.7508 281.862 20.7945Z" fill="url(#paint6_linear)"/>
    <path d="M266.663 11.2752C266.726 9.72825 267.4 8.26954 268.537 7.21878C269.674 6.16802 271.181 5.61095 272.727 5.66968C274.274 5.61119 275.781 6.16838 276.917 7.21911C278.054 8.26984 278.728 9.72842 278.791 11.2752C278.728 12.8219 278.054 14.2805 276.917 15.3312C275.781 16.3819 274.274 16.9391 272.727 16.8806C271.181 16.9394 269.674 16.3823 268.537 15.3315C267.4 14.2808 266.726 12.8221 266.663 11.2752V11.2752Z" fill="white"/>
    <path d="M274.128 10.0969C274.228 10.0055 274.359 9.95728 274.494 9.96268C274.629 9.96807 274.756 10.0267 274.848 10.1256C274.946 10.2177 275.004 10.3452 275.009 10.4801C275.014 10.6149 274.964 10.7461 274.872 10.8448L272.968 12.7397C272.869 12.8307 272.738 12.8789 272.604 12.8739C272.469 12.8689 272.342 12.811 272.251 12.7129L270.972 11.4343C270.874 11.343 270.815 11.2166 270.809 11.0824C270.803 10.9482 270.851 10.8171 270.941 10.7176C271.04 10.6256 271.171 10.5765 271.306 10.5812C271.44 10.5859 271.568 10.6439 271.66 10.7425L272.568 11.6504L274.128 10.0969Z" fill="white"/>
  </g>
  <defs>
    <linearGradient id="paint0_linear" x1="184.489" y1="2.5661e-06" x2="107.675" y2="189.947" gradientUnits="userSpaceOnUse">
      <stop stop-color="#FFB782"/>
      <stop offset="1" stop-color="#EB4878"/>
    </linearGradient>
    <linearGradient id="paint1_linear" x1="29.3833" y1="90.2686" x2="10.001" y2="122.822" gradientUnits="userSpaceOnUse">
      <stop stop-color="#39ABC5"/>
      <stop offset="1" stop-color="#A8EB9D"/>
    </linearGradient>
    <linearGradient id="paint2_linear" x1="47.4775" y1="65.0232" x2="28.0952" y2="97.5767" gradientUnits="userSpaceOnUse">
      <stop stop-color="#39ABC5"/>
      <stop offset="1" stop-color="#A8EB9D"/>
    </linearGradient>
    <linearGradient id="paint3_linear" x1="-2.36964" y1="148.047" x2="33.4664" y2="110.201" gradientUnits="userSpaceOnUse">
      <stop stop-color="#FFCFAA"/>
      <stop offset="1" stop-color="#FA6EB9"/>
    </linearGradient>
    <linearGradient id="paint4_linear" x1="15.7246" y1="122.802" x2="51.5606" y2="84.955" gradientUnits="userSpaceOnUse">
      <stop stop-color="#FFCFAA"/>
      <stop offset="1" stop-color="#FA6EB9"/>
    </linearGradient>
    <linearGradient id="paint5_linear" x1="304.566" y1="100.356" x2="244.899" y2="197.988" gradientUnits="userSpaceOnUse">
      <stop stop-color="#FFB782"/>
      <stop offset="1" stop-color="#EB4878"/>
    </linearGradient>
    <linearGradient id="paint6_linear" x1="277.918" y1="-0.00985685" x2="268.038" y2="24.5943" gradientUnits="userSpaceOnUse">
      <stop stop-color="#FFB782"/>
      <stop offset="1" stop-color="#EB4878"/>
    </linearGradient>
    <clipPath id="clip0">
      <rect width="336" height="198" fill="white"/>
    </clipPath>
  </defs>
</svg>