<svg id="Icon_20px_question_1445_Copy_2" data-name="Icon/20px/question [#1445] Copy 2" xmlns="http://www.w3.org/2000/svg" xmlns:xlink="http://www.w3.org/1999/xlink" width="14" height="14" viewBox="0 0 14 14">
  <defs>
    <clipPath id="clip-path">
      <path id="Icon_20px_question_1445_" data-name="Icon/20px/question [#1445]" d="M12.6,14H1.4A1.4,1.4,0,0,1,0,12.6V1.4A1.4,1.4,0,0,1,1.4,0H12.6A1.4,1.4,0,0,1,14,1.4V12.6A1.4,1.4,0,0,1,12.6,14ZM2.1,1.4a.7.7,0,0,0-.7.7v9.8a.7.7,0,0,0,.7.7h9.8a.7.7,0,0,0,.7-.7V2.1a.7.7,0,0,0-.7-.7Zm4.045,9.459a.7.7,0,1,1,.7-.7A.7.7,0,0,1,6.144,10.859Zm.156-2.1a.7.7,0,0,1-.7-.7V6.844A1.246,1.246,0,0,1,6.844,5.6h.7a.7.7,0,1,0,0-1.4h-2.8a.7.7,0,0,1,0-1.4h4A1.06,1.06,0,0,1,9.8,3.858V5.6A1.4,1.4,0,0,1,8.4,7H7.357A.357.357,0,0,0,7,7.357v.7A.7.7,0,0,1,6.3,8.758Z" fill="#9ea0a5"/>
    </clipPath>
  </defs>
  <rect id="Icon_20px_question_1445_Copy_2_background" data-name="Icon/20px/question [#1445] Copy 2 background" width="14" height="14" transform="translate(0 0)" fill="rgba(0,0,0,0)"/>
  <path id="Icon_20px_question_1445_2" data-name="Icon/20px/question [#1445]" d="M12.6,14H1.4A1.4,1.4,0,0,1,0,12.6V1.4A1.4,1.4,0,0,1,1.4,0H12.6A1.4,1.4,0,0,1,14,1.4V12.6A1.4,1.4,0,0,1,12.6,14ZM2.1,1.4a.7.7,0,0,0-.7.7v9.8a.7.7,0,0,0,.7.7h9.8a.7.7,0,0,0,.7-.7V2.1a.7.7,0,0,0-.7-.7Zm4.045,9.459a.7.7,0,1,1,.7-.7A.7.7,0,0,1,6.144,10.859Zm.156-2.1a.7.7,0,0,1-.7-.7V6.844A1.246,1.246,0,0,1,6.844,5.6h.7a.7.7,0,1,0,0-1.4h-2.8a.7.7,0,0,1,0-1.4h4A1.06,1.06,0,0,1,9.8,3.858V5.6A1.4,1.4,0,0,1,8.4,7H7.357A.357.357,0,0,0,7,7.357v.7A.7.7,0,0,1,6.3,8.758Z" transform="translate(0 0)" fill="#9ea0a5"/>
</svg>
