<svg width="917" height="614" viewBox="0 0 917 614" fill="none" xmlns="http://www.w3.org/2000/svg">
  <g opacity="0.5">
    <path fill-rule="evenodd" clip-rule="evenodd" d="M545.249 533.482L547.285 543.448L543.966 548.22C543.966 548.22 559.679 541.888 566.77 532.189L566.924 517.395C566.924 517.395 553.895 529.933 545.249 533.482Z" fill="#08B9C3"/>
    <path fill-rule="evenodd" clip-rule="evenodd" d="M545.249 533.482L547.285 543.448L543.966 548.22C543.966 548.22 559.679 541.888 566.77 532.189L566.924 517.395C566.924 517.395 553.895 529.933 545.249 533.482Z" fill="#08B9C3"/>
    <path fill-rule="evenodd" clip-rule="evenodd" d="M562.458 549.629C549.713 562.122 529.702 565.434 529.702 565.434L530.459 580.083C546.242 579.174 560.142 564.191 560.142 564.191L559.443 558.013L562.458 549.629Z" fill="#08B9C3"/>
    <path fill-rule="evenodd" clip-rule="evenodd" d="M562.458 549.629C549.713 562.122 529.702 565.434 529.702 565.434L530.459 580.083C546.242 579.174 560.142 564.191 560.142 564.191L559.443 558.013L562.458 549.629Z" fill="#08B9C3"/>
    <path fill-rule="evenodd" clip-rule="evenodd" d="M577.762 582.834L530.596 566.151C530.596 566.151 528.496 573.686 531.387 580.867L578.552 597.549C580.652 590.018 577.762 582.834 577.762 582.834Z" fill="#08B9C3"/>
    <path fill-rule="evenodd" clip-rule="evenodd" d="M561.882 550.694L545.059 534.643C545.059 534.643 541.798 541.843 543.548 549.431L559.56 565.397C563.21 558.374 561.882 550.694 561.882 550.694Z" fill="#08B9C3"/>
    <path fill-rule="evenodd" clip-rule="evenodd" d="M559.917 470.586L551.106 460.717C551.106 460.717 563.877 487.385 536.991 496.835L545.457 509.958C545.457 509.958 570.523 496.292 559.917 470.586Z" fill="#08B9C3"/>
    <path fill-rule="evenodd" clip-rule="evenodd" d="M559.917 470.586L551.106 460.717C551.106 460.717 563.877 487.385 536.991 496.835L545.457 509.958C545.457 509.958 570.523 496.292 559.917 470.586Z" fill="#08B9C3"/>
    <path fill-rule="evenodd" clip-rule="evenodd" d="M537.151 464.039L542.546 472.483C542.546 472.483 554.98 464.04 561.532 471.189C561.532 471.189 555.951 453.949 537.151 464.039Z" fill="#08B9C3"/>
    <path fill-rule="evenodd" clip-rule="evenodd" d="M568.161 517.643L537.048 497.504C537.048 497.504 535.544 505.284 539.043 512.357L567.891 532.643C570.55 525.164 568.161 517.643 568.161 517.643Z" fill="#08B9C3"/>
    <path fill-rule="evenodd" clip-rule="evenodd" d="M844.171 527.535C844.171 527.535 823.504 557.75 841.413 570.384L851.61 573.851C851.61 573.851 835.383 559.837 852.051 535.143L847.305 531.887L844.171 527.535Z" fill="#AC2C5B"/>
    <path fill-rule="evenodd" clip-rule="evenodd" d="M809.621 483.239C809.621 483.239 788.006 508.207 787.927 527.98C787.927 527.98 788.954 533.337 797.08 536.88C797.08 536.88 790.596 524.77 814.888 496.59L811.156 490.541L809.621 483.239Z" fill="#AC2C5B"/>
    <path fill-rule="evenodd" clip-rule="evenodd" d="M773.859 485.121L778.302 497.434C778.302 497.434 797.75 490.888 814.573 496.706L809.415 483.687C809.415 483.687 794.703 477.141 773.859 485.121Z" fill="#FF629B"/>
    <path fill-rule="evenodd" clip-rule="evenodd" d="M881.422 554.29L870.492 547.232C870.492 547.232 858.465 564.308 841.257 569.966L853.194 577.148C853.194 577.148 869.105 573.351 881.422 554.29Z" fill="#FF629B"/>
    <path fill-rule="evenodd" clip-rule="evenodd" d="M788.272 527.807C788.272 527.807 801.385 543.443 843.646 527.362C843.646 527.362 847.506 529.709 851.398 534.927C851.398 534.927 824.973 552.249 799.453 542.033C799.453 542.033 788.127 536.667 788.272 527.807Z" fill="#FF629B"/>
    <path fill-rule="evenodd" clip-rule="evenodd" d="M872.72 339.873C872.72 339.873 865.797 326.556 879.402 318.397L861.083 315.509C861.083 315.509 853.803 325.082 862.148 344.922L872.72 339.873Z" fill="#FF629B"/>
    <path fill-rule="evenodd" clip-rule="evenodd" d="M912.962 425.492L926.898 421.896C926.898 421.896 927.73 399.609 917.949 390.052L902.861 389.048C902.861 389.048 920.053 413.029 912.962 425.492Z" fill="#FFD35E"/>
    <path fill-rule="evenodd" clip-rule="evenodd" d="M832.588 623.04C830.684 619.053 832.373 614.278 836.36 612.373C840.348 610.469 845.122 612.158 847.026 616.145C848.93 620.131 847.243 624.907 843.255 626.811C839.268 628.716 834.491 627.026 832.588 623.04Z" fill="#FF629B"/>
    <path fill-rule="evenodd" clip-rule="evenodd" d="M473.256 520.383C471.352 516.396 473.041 511.62 477.028 509.716C481.016 507.812 485.79 509.501 487.694 513.488C489.598 517.474 487.911 522.25 483.923 524.154C479.936 526.059 475.16 524.369 473.256 520.383Z" fill="#FF629B"/>
    <path fill-rule="evenodd" clip-rule="evenodd" d="M338.572 622.316C336.668 618.329 338.357 613.553 342.345 611.649C346.332 609.745 351.106 611.433 353.01 615.421C354.914 619.406 353.227 624.183 349.24 626.087C345.252 627.991 340.476 626.301 338.572 622.316Z" fill="#FF629B"/>
    <path fill-rule="evenodd" clip-rule="evenodd" d="M625.407 624.032C623.503 620.045 625.192 615.269 629.179 613.365C633.167 611.461 637.941 613.15 639.845 617.137C641.749 621.123 640.062 625.899 636.074 627.803C632.087 629.707 627.311 628.018 625.407 624.032Z" fill="#FF629B"/>
    <path fill-rule="evenodd" clip-rule="evenodd" d="M732.363 411.532C730.459 407.544 732.148 402.769 736.135 400.865C740.123 398.96 744.897 400.649 746.801 404.636C748.704 408.622 747.018 413.398 743.03 415.303C739.043 417.207 734.266 415.517 732.363 411.532Z" fill="#FF629B"/>
    <path fill-rule="evenodd" clip-rule="evenodd" d="M781.501 230.561C779.597 226.574 781.286 221.798 785.274 219.894C789.261 217.99 794.035 219.679 795.939 223.666C797.844 227.653 796.156 232.428 792.169 234.332C788.181 236.236 783.405 234.548 781.501 230.561Z" fill="#FF629B"/>
    <path fill-rule="evenodd" clip-rule="evenodd" d="M860.803 462.249C858.899 458.262 860.588 453.486 864.575 451.582C868.563 449.678 873.337 451.367 875.241 455.354C877.145 459.341 875.458 464.116 871.47 466.02C867.483 467.924 862.707 466.236 860.803 462.249Z" fill="#FF629B"/>
    <path fill-rule="evenodd" clip-rule="evenodd" d="M770.821 432.345C767.132 424.621 770.402 415.369 778.128 411.679C785.854 407.989 795.106 411.261 798.794 418.986C802.483 426.71 799.213 435.963 791.487 439.653C783.761 443.342 774.509 440.069 770.821 432.345Z" fill="#FFD35E"/>
    <path fill-rule="evenodd" clip-rule="evenodd" d="M730.792 471.718L724.604 467.012L716.957 469.435L719.827 462.102L715.329 455.83L723.288 456.005L728.154 449.706L730.205 457.146L737.712 459.524L731.02 463.948L730.792 471.718Z" fill="#08B9C3"/>
    <path fill-rule="evenodd" clip-rule="evenodd" d="M728.691 360.665L722.503 355.959L714.856 358.383L717.726 351.049L713.229 344.778L721.187 344.951L726.053 338.654L728.105 346.093L735.611 348.471L728.919 352.895L728.691 360.665Z" fill="#00D594"/>
    <path fill-rule="evenodd" clip-rule="evenodd" d="M491.431 485.726L485.243 481.02L477.596 483.444L480.466 476.11L475.968 469.839L483.926 470.012L488.793 463.715L490.844 471.154L498.35 473.532L491.659 477.956L491.431 485.726Z" fill="#00D594"/>
    <path fill-rule="evenodd" clip-rule="evenodd" d="M311.347 632.065L305.159 627.359L297.512 629.782L300.382 622.449L295.884 616.178L303.843 616.351L308.709 610.053L310.76 617.493L318.267 619.871L311.575 624.295L311.347 632.065Z" fill="#00D594"/>
    <path fill-rule="evenodd" clip-rule="evenodd" d="M111.807 560.451L105.619 555.745L97.972 558.169L100.842 550.834L96.3441 544.564L104.303 544.738L109.169 538.439L111.22 545.878L118.727 548.257L112.035 552.681L111.807 560.451Z" fill="#00D594"/>
    <path fill-rule="evenodd" clip-rule="evenodd" d="M267.097 508.231L260.909 503.525L253.262 505.949L256.132 498.614L251.634 492.344L259.593 492.518L264.459 486.219L266.51 493.658L274.017 496.037L267.325 500.461L267.097 508.231Z" fill="#08B9C3"/>
    <path fill-rule="evenodd" clip-rule="evenodd" d="M444.256 628.147L438.068 623.441L430.421 625.865L433.29 618.53L428.793 612.26L436.752 612.434L441.617 606.135L443.668 613.574L451.175 615.953L444.484 620.377L444.256 628.147Z" fill="#08B9C3"/>
    <path fill-rule="evenodd" clip-rule="evenodd" d="M568.726 636.094L562.538 631.388L554.891 633.812L557.761 626.477L553.263 620.207L561.222 620.381L566.088 614.082L568.139 621.521L575.646 623.9L568.954 628.324L568.726 636.094Z" fill="#08B9C3"/>
    <path fill-rule="evenodd" clip-rule="evenodd" d="M70.2191 534.079L64.0313 529.373L56.3841 531.797L59.2538 524.462L54.7562 518.192L62.7151 518.366L67.5809 512.067L69.6319 519.506L77.1388 521.885L70.4472 526.309L70.2191 534.079Z" fill="#08B9C3"/>
    <path fill-rule="evenodd" clip-rule="evenodd" d="M908.887 504.99L902.699 500.284L895.052 502.708L897.923 495.374L893.424 489.103L901.383 489.277L906.249 482.978L908.301 490.418L915.807 492.796L909.115 497.22L908.887 504.99Z" fill="#08B9C3"/>
    <path fill-rule="evenodd" clip-rule="evenodd" d="M843.737 406.31L835.019 399.529L824.361 402.864L828.268 392.481L821.886 383.5L833.018 383.863L839.732 374.977L842.705 385.586L853.237 389.074L843.944 395.267L843.737 406.31Z" fill="#FF8249"/>
    <path fill-rule="evenodd" clip-rule="evenodd" d="M328.791 547.104C328.791 547.104 301.896 545.4 300.257 561.534L301.719 569.313C301.719 569.313 304.854 553.725 326.752 554.978L327.128 550.735L328.791 547.104Z" fill="#AC2C5B"/>
    <path fill-rule="evenodd" clip-rule="evenodd" d="M344.213 506.463C344.213 506.463 319.976 502.089 307.071 509.527C307.071 509.527 303.959 512.211 304.647 518.752C304.647 518.752 310.145 510.019 337.462 514.888L340.023 510.21L344.213 506.463Z" fill="#AC2C5B"/>
    <path fill-rule="evenodd" clip-rule="evenodd" d="M330.238 483.973L323.552 491.734C323.552 491.734 335.649 502.132 338.258 515.604L345.146 507.089C345.146 507.089 343.865 494.74 330.238 483.973Z" fill="#FF629B"/>
    <path fill-rule="evenodd" clip-rule="evenodd" d="M327.065 582.921L327.779 572.656C327.779 572.656 311.296 571.532 300.763 562.237L300.35 573.232C300.35 573.232 309.091 582.416 327.065 582.921Z" fill="#FF629B"/>
    <path fill-rule="evenodd" clip-rule="evenodd" d="M307.791 511.294C307.791 511.294 302.654 525.748 328.977 547.386C328.977 547.386 328.918 550.796 327.023 555.302C327.023 555.302 305.877 544.497 302.834 523.953C302.834 523.953 302.02 514.524 307.791 511.294Z" fill="#FF629B"/>
    <path fill-rule="evenodd" clip-rule="evenodd" d="M908.479 210.242L903.35 201.915C869.463 210.449 853.26 196.718 853.26 196.718L860.647 209.09C871.756 218.048 908.479 210.242 908.479 210.242Z" fill="#FFD35E"/>
    <path fill-rule="evenodd" clip-rule="evenodd" d="M874.346 246.636C874.346 246.636 890.748 256.773 926.068 258.547C926.068 258.547 925.584 253.366 921.298 247.774C921.298 247.774 877.491 242.76 871.43 234.772C871.43 234.772 869.305 240.954 874.346 246.636Z" fill="#FFD35E"/>
    <path fill-rule="evenodd" clip-rule="evenodd" d="M942.885 298.661C942.885 298.661 930.688 288.435 895.467 286.143C895.467 286.143 890.622 290.586 894.969 296.344C894.969 296.344 939.807 302.568 945.956 310.791C945.956 310.791 947.989 304.524 942.885 298.661Z" fill="#FFD35E"/>
    <path fill-rule="evenodd" clip-rule="evenodd" d="M908.479 210.242L903.35 201.915C869.463 210.449 853.26 196.718 853.26 196.718L860.647 209.09C871.756 218.048 908.479 210.242 908.479 210.242Z" fill="#FFD35E"/>
    <path fill-rule="evenodd" clip-rule="evenodd" d="M874.346 246.636C874.346 246.636 890.748 256.773 926.068 258.547C926.068 258.547 925.584 253.366 921.298 247.774C921.298 247.774 877.491 242.76 871.43 234.772C871.43 234.772 869.305 240.954 874.346 246.636Z" fill="#FFD35E"/>
    <path fill-rule="evenodd" clip-rule="evenodd" d="M942.885 298.661C942.885 298.661 930.688 288.435 895.467 286.143C895.467 286.143 890.622 290.586 894.969 296.344C894.969 296.344 939.807 302.568 945.956 310.791C945.956 310.791 947.989 304.524 942.885 298.661Z" fill="#FFD35E"/>
    <path fill-rule="evenodd" clip-rule="evenodd" d="M908.479 210.242L903.35 201.915C869.463 210.449 853.26 196.718 853.26 196.718L860.647 209.09C871.756 218.048 908.479 210.242 908.479 210.242Z" fill="#FFD35E"/>
    <path fill-rule="evenodd" clip-rule="evenodd" d="M874.346 246.636C874.346 246.636 890.748 256.773 926.068 258.547C926.068 258.547 925.584 253.366 921.298 247.774C921.298 247.774 877.491 242.76 871.43 234.772C871.43 234.772 869.305 240.954 874.346 246.636Z" fill="#FFD35E"/>
    <path fill-rule="evenodd" clip-rule="evenodd" d="M942.885 298.661C942.885 298.661 930.688 288.435 895.467 286.143C895.467 286.143 890.622 290.586 894.969 296.344C894.969 296.344 939.807 302.568 945.956 310.791C945.956 310.791 947.989 304.524 942.885 298.661Z" fill="#FFD35E"/>
    <path fill-rule="evenodd" clip-rule="evenodd" d="M908.479 210.242L903.35 201.915C869.463 210.449 853.26 196.718 853.26 196.718L860.647 209.09C871.756 218.048 908.479 210.242 908.479 210.242Z" fill="#FFD35E"/>
    <path fill-rule="evenodd" clip-rule="evenodd" d="M874.346 246.636C874.346 246.636 890.748 256.773 926.068 258.547C926.068 258.547 925.584 253.366 921.298 247.774C921.298 247.774 877.491 242.76 871.43 234.772C871.43 234.772 869.305 240.954 874.346 246.636Z" fill="#FFD35E"/>
    <path fill-rule="evenodd" clip-rule="evenodd" d="M942.885 298.661C942.885 298.661 930.688 288.435 895.467 286.143C895.467 286.143 890.622 290.586 894.969 296.344C894.969 296.344 939.807 302.568 945.956 310.791C945.956 310.791 947.989 304.524 942.885 298.661Z" fill="#FFD35E"/>
    <path fill-rule="evenodd" clip-rule="evenodd" d="M913.965 340.549L909.452 332.63C909.452 332.63 939.093 317.068 943.482 296.532C943.482 296.532 962.61 312.841 913.965 340.549Z" fill="#FFD35E"/>
    <path fill-rule="evenodd" clip-rule="evenodd" d="M874.503 247.11C874.503 247.11 866.979 232.095 908.711 210.731C908.711 210.731 907.68 204.264 903.504 202.231C903.504 202.231 855.057 225.612 874.503 247.11Z" fill="#FFD35E"/>
    <path fill-rule="evenodd" clip-rule="evenodd" d="M921.093 249.373C921.093 249.373 929.653 263.664 889.316 288.118C889.316 288.118 890.793 294.443 895.112 296.134C895.112 296.134 942.031 269.154 921.093 249.373Z" fill="#FFD35E"/>
    <path fill-rule="evenodd" clip-rule="evenodd" d="M860.455 207.939C860.455 207.939 853.206 189.247 856.847 177.136L847.921 175.138C847.921 175.138 843.599 196.737 860.455 207.939Z" fill="#FFD35E"/>
    <path fill-rule="evenodd" clip-rule="evenodd" d="M387.506 570.809C387.506 570.809 381.5 557.054 366.603 562.507L375.872 546.445C375.872 546.445 387.893 546.8 398.078 565.761L387.506 570.809Z" fill="#FF629B"/>
    <path fill-rule="evenodd" clip-rule="evenodd" d="M761.518 579.609L764.654 565.174C764.654 565.174 786.402 563.325 796 572.917L797.39 588.327C797.39 588.327 773.5 571.788 761.518 579.609Z" fill="#00D594"/>
    <path fill-rule="evenodd" clip-rule="evenodd" d="M670.731 422.065L673.239 411.256C673.239 411.256 689.798 409.69 697.017 416.773L697.943 428.271C697.943 428.271 679.913 416.121 670.731 422.065Z" fill="#00D594"/>
    <path fill-rule="evenodd" clip-rule="evenodd" d="M407.129 534.63L409.637 523.821C409.637 523.821 426.196 522.256 433.415 529.339L434.341 540.836C434.341 540.836 416.311 528.687 407.129 534.63Z" fill="#00D594"/>
    <path fill-rule="evenodd" clip-rule="evenodd" d="M367.536 458.722L355.979 467.301C355.979 467.301 338.122 453.938 336.838 440.325L345.541 427.958C345.541 427.958 353.384 456.402 367.536 458.722Z" fill="#FFD35E"/>
    <path fill-rule="evenodd" clip-rule="evenodd" d="M642.824 532.657L630.326 506.488L642.96 500.455L651.848 528.348L642.824 532.657Z" fill="#08B9C3"/>
    <path fill-rule="evenodd" clip-rule="evenodd" d="M279.072 608.382L250.061 590.427L258.302 578.407L286.129 589.378L279.072 608.382Z" fill="#00D594"/>
    <path fill-rule="evenodd" clip-rule="evenodd" d="M519.218 627.728C515.528 620.002 506.278 616.731 498.552 620.421C490.826 624.11 487.555 633.361 491.244 641.087C494.933 648.812 504.185 652.084 511.911 648.394C519.637 644.705 522.907 635.453 519.218 627.728Z" fill="#08B9C3"/>
    <path fill-rule="evenodd" clip-rule="evenodd" d="M803.352 307.107C799.663 299.382 790.411 296.109 782.685 299.799C774.959 303.488 771.689 312.742 775.378 320.466C779.067 328.19 788.318 331.462 796.044 327.772C803.77 324.083 807.041 314.831 803.352 307.107Z" fill="#08B9C3"/>
    <path fill-rule="evenodd" clip-rule="evenodd" d="M881.555 127.927C877.867 120.203 868.615 116.93 860.889 120.619C853.163 124.309 849.893 133.562 853.582 141.287C857.27 149.009 866.522 152.283 874.248 148.593C881.974 144.904 885.243 135.65 881.555 127.927Z" fill="#08B9C3"/>
    <path fill-rule="evenodd" clip-rule="evenodd" d="M158.287 508.597C154.598 500.871 145.346 497.598 137.62 501.288C129.894 504.978 126.624 514.23 130.314 521.956C134.002 529.679 143.253 532.951 150.979 529.262C158.705 525.572 161.976 516.32 158.287 508.597Z" fill="#08B9C3"/>
    <path fill-rule="evenodd" clip-rule="evenodd" d="M233.881 533.615C231.502 528.633 225.532 526.52 220.548 528.901C215.564 531.281 213.454 537.252 215.833 542.234C218.214 547.218 224.183 549.328 229.167 546.948C234.151 544.568 236.261 538.599 233.881 533.615Z" fill="#FFD35E"/>
    <path fill-rule="evenodd" clip-rule="evenodd" d="M88.0289 571.141C85.6499 566.159 79.6796 564.046 74.6957 566.426C69.7119 568.807 67.6023 574.778 69.9814 579.76C72.3618 584.744 78.3307 586.854 83.3146 584.474C88.2985 582.094 90.4094 576.125 88.0289 571.141Z" fill="#FF629B"/>
    <path fill-rule="evenodd" clip-rule="evenodd" d="M420.123 476.015C416.434 468.291 407.183 465.02 399.457 468.709C391.731 472.399 388.46 481.65 392.149 489.374C395.838 497.099 405.091 500.373 412.817 496.683C420.543 492.993 423.812 483.74 420.123 476.015Z" fill="#FFD35E"/>
    <path fill-rule="evenodd" clip-rule="evenodd" d="M628.092 553.791C624.403 546.066 615.152 542.796 607.426 546.485C599.7 550.175 596.429 559.426 600.118 567.15C603.807 574.875 613.059 578.149 620.785 574.459C628.511 570.769 631.781 561.516 628.092 553.791Z" fill="#FFD35E"/>
    <path fill-rule="evenodd" clip-rule="evenodd" d="M458.005 591.305L458.211 580.262L467.504 574.069L456.972 570.581L454 559.972L447.285 568.858L436.153 568.495L442.536 577.476L438.628 587.86L449.286 584.524L458.005 591.305Z" fill="#FF8249"/>
    <path fill-rule="evenodd" clip-rule="evenodd" d="M185.198 600.913L185.404 589.87L194.697 583.677L184.165 580.189L181.193 569.58L174.478 578.466L163.346 578.103L169.729 587.084L165.821 597.467L176.479 594.132L185.198 600.913Z" fill="#FF629B"/>
    <path fill-rule="evenodd" clip-rule="evenodd" d="M105.591 661.52L102.811 652.022C131.853 632.469 132.449 611.016 132.449 611.016L136.735 624.949C135.985 639.35 105.591 661.52 105.591 661.52Z" fill="#00D594"/>
    <path fill-rule="evenodd" clip-rule="evenodd" d="M105.591 661.52L102.811 652.022C131.853 632.469 132.449 611.016 132.449 611.016L136.735 624.949C135.985 639.35 105.591 661.52 105.591 661.52Z" fill="#00D594"/>
    <path fill-rule="evenodd" clip-rule="evenodd" d="M105.591 661.52L102.811 652.022C131.853 632.469 132.449 611.016 132.449 611.016L136.735 624.949C135.985 639.35 105.591 661.52 105.591 661.52Z" fill="#00D594"/>
    <path fill-rule="evenodd" clip-rule="evenodd" d="M105.591 661.52L102.811 652.022C131.853 632.469 132.449 611.016 132.449 611.016L136.735 624.949C135.985 639.35 105.591 661.52 105.591 661.52Z" fill="#00D594"/>
    <path fill-rule="evenodd" clip-rule="evenodd" d="M136.822 625.219C136.822 625.219 127.871 607.35 116.57 601.919L120.985 593.996C120.985 593.996 139.704 605.283 136.822 625.219Z" fill="#00D594"/>
    <path fill-rule="evenodd" clip-rule="evenodd" d="M731.086 595.8L730.71 607.653C691.118 618.65 682.593 642.769 682.593 642.769L682.912 625.304C689.025 609.248 731.086 595.8 731.086 595.8Z" fill="#00D594"/>
    <path fill-rule="evenodd" clip-rule="evenodd" d="M674.763 577.563C674.763 577.563 686.484 556.99 721.377 534.449C721.377 534.449 724.631 544.254 721.053 548.826C721.053 548.826 680.164 579.708 678.543 591.474C678.543 591.474 672.87 586.365 674.763 577.563Z" fill="#00D594"/>
    <path fill-rule="evenodd" clip-rule="evenodd" d="M731.086 595.8L730.71 607.653C691.118 618.65 682.593 642.769 682.593 642.769L682.912 625.304C689.025 609.248 731.086 595.8 731.086 595.8Z" fill="#00D594"/>
    <path fill-rule="evenodd" clip-rule="evenodd" d="M674.763 577.563C674.763 577.563 686.484 556.99 721.377 534.449C721.377 534.449 724.631 544.254 721.053 548.826C721.053 548.826 680.164 579.708 678.543 591.474C678.543 591.474 672.87 586.365 674.763 577.563Z" fill="#00D594"/>
    <path fill-rule="evenodd" clip-rule="evenodd" d="M731.086 595.8L730.71 607.653C691.118 618.65 682.593 642.769 682.593 642.769L682.912 625.304C689.025 609.248 731.086 595.8 731.086 595.8Z" fill="#00D594"/>
    <path fill-rule="evenodd" clip-rule="evenodd" d="M674.763 577.563C674.763 577.563 686.484 556.99 721.377 534.449C721.377 534.449 724.631 544.254 721.053 548.826C721.053 548.826 680.164 579.708 678.543 591.474C678.543 591.474 672.87 586.365 674.763 577.563Z" fill="#00D594"/>
    <path fill-rule="evenodd" clip-rule="evenodd" d="M731.086 595.8L730.71 607.653C691.118 618.65 682.593 642.769 682.593 642.769L682.912 625.304C689.025 609.248 731.086 595.8 731.086 595.8Z" fill="#00D594"/>
    <path fill-rule="evenodd" clip-rule="evenodd" d="M674.763 577.563C674.763 577.563 686.484 556.99 721.377 534.449C721.377 534.449 724.631 544.254 721.053 548.826C721.053 548.826 680.164 579.708 678.543 591.474C678.543 591.474 672.87 586.365 674.763 577.563Z" fill="#00D594"/>
    <path fill-rule="evenodd" clip-rule="evenodd" d="M694.211 492.402L687.659 500.594C687.659 500.594 719.659 524.659 721.416 549.226C721.416 549.226 741.552 536.496 694.211 492.402Z" fill="#00D594"/>
    <path fill-rule="evenodd" clip-rule="evenodd" d="M675.708 578.575C675.708 578.575 676.577 598.242 731.952 595.667C731.952 595.667 734.605 602.85 731.467 607.355C731.467 607.355 668.002 611.792 675.708 578.575Z" fill="#00D594"/>
  </g>
</svg>