<svg id="Security_small" data-name="Security small" xmlns="http://www.w3.org/2000/svg" xmlns:xlink="http://www.w3.org/1999/xlink" width="75.243" height="75.243" viewBox="0 0 75.243 75.243">
  <defs>
    <linearGradient id="linear-gradient" x1="-0.127" y1="0.986" x2="-0.004" y2="-0.025" gradientUnits="objectBoundingBox">
      <stop offset="0" stop-color="#78df92"/>
      <stop offset="1" stop-color="#3dbdf3"/>
    </linearGradient>
  </defs>
  <path id="Path" d="M27.119.443l22.368,13.5a3.152,3.152,0,0,1,1.506,2.911q-1.087,16.161-6.942,26.983Q37.849,55.3,28.019,61.147a3.951,3.951,0,0,1-4.829.066A46.279,46.279,0,0,1,5.932,42.519Q.491,31.677,0,16.788H0a3.15,3.15,0,0,1,1.511-2.8L23.946.443A3.066,3.066,0,0,1,27.119.443Z" transform="translate(13.353 9.883)" fill="url(#linear-gradient)"/>
  <path id="Rectangle_Copy_7" data-name="Rectangle Copy 7" d="M37.142,53.216A44.893,44.893,0,0,1,23.208,51a51.992,51.992,0,0,1-11.281-5.318A71.077,71.077,0,0,1,.985,37.186,3.11,3.11,0,0,1,.1,34.152l6.43-25.4A3.1,3.1,0,0,1,8.776,6.506L34.1.1a3.108,3.108,0,0,1,3.107.97,80.133,80.133,0,0,1,8.765,12,52.72,52.72,0,0,1,5.2,11.82,48.8,48.8,0,0,1,2,12.085,40.171,40.171,0,0,1-1.254,11.4,4.017,4.017,0,0,1-3.38,3.472A49.636,49.636,0,0,1,37.142,53.216ZM33.859,6.266l-22,5.571L6.249,33.977a62.965,62.965,0,0,0,9.336,7,45.721,45.721,0,0,0,9.458,4.391,39,39,0,0,0,12.1,1.927,43.276,43.276,0,0,0,9.2-1.023,34.444,34.444,0,0,0,.9-9.517,43.138,43.138,0,0,0-1.751-10.21C43.577,20,39.664,13.176,33.859,6.266Z" transform="translate(37.629 0) rotate(45)" fill="rgba(255,255,255,0.2)"/>
  <path id="Path-2" data-name="Path" d="M2.564,8.02A4.2,4.2,0,0,1,0,4.214,4.364,4.364,0,0,1,4.5,0,4.364,4.364,0,0,1,9,4.214,4.2,4.2,0,0,1,6.436,8.02L7.5,13h-6L2.564,8.02Z" transform="translate(34.353 32.883)" fill="#fff"/>
</svg>
