<svg width="16" height="16" viewBox="0 0 16 16" fill="none" xmlns="http://www.w3.org/2000/svg">
    <path opacity="0.3" fill-rule="evenodd" clip-rule="evenodd" d="M5.33317 2H4.6665C3.56193 2 2.6665 2.89543 2.6665 4V13.3333C2.6665 14.4379 3.56194 15.3333 4.66651 15.3333H11.3332C12.4377 15.3333 13.3332 14.4379 13.3332 13.3333V4C13.3332 2.89543 12.4377 2 11.3332 2H10.6665V2.33333C10.6665 2.88562 10.2188 3.33333 9.6665 3.33333H6.33317C5.78089 3.33333 5.33317 2.88562 5.33317 2.33333V2Z" fill="black"/>
    <path fill-rule="evenodd" clip-rule="evenodd" d="M8.66667 1.33317L9.5 1.33317C9.77614 1.33317 10 1.55703 10 1.83317V2.1665C10 2.44265 9.77614 2.6665 9.5 2.6665H6.5C6.22386 2.6665 6 2.44265 6 2.1665V1.83317C6 1.55703 6.22386 1.33317 6.5 1.33317L7.33333 1.33317C7.33333 0.964981 7.63181 0.666504 8 0.666504C8.36819 0.666504 8.66667 0.964981 8.66667 1.33317Z" fill="black"/>
    <rect opacity="0.3" x="6.6665" y="6" width="4.66667" height="1.33333" rx="0.666667" fill="black"/>
    <rect opacity="0.3" x="4.6665" y="6" width="1.33333" height="1.33333" rx="0.666667" fill="black"/>
    <rect opacity="0.3" x="4.6665" y="8.6665" width="1.33333" height="1.33333" rx="0.666667" fill="black"/>
    <rect opacity="0.3" x="6.6665" y="8.6665" width="4.66667" height="1.33333" rx="0.666667" fill="black"/>
    <rect opacity="0.3" x="4.6665" y="11.3335" width="1.33333" height="1.33333" rx="0.666667" fill="black"/>
    <rect opacity="0.3" x="6.6665" y="11.3335" width="4.66667" height="1.33333" rx="0.666667" fill="black"/>
</svg>