<svg width="16" height="16" viewBox="0 0 16 16" fill="none" xmlns="http://www.w3.org/2000/svg">
    <path opacity="0.3" fill-rule="evenodd" clip-rule="evenodd" d="M5.33341 2H4.66675C3.56218 2 2.66675 2.89543 2.66675 4V13.3333C2.66675 14.4379 3.56218 15.3333 4.66675 15.3333H11.3334C12.438 15.3333 13.3334 14.4379 13.3334 13.3333V4C13.3334 2.89543 12.438 2 11.3334 2H10.6667V2.33333C10.6667 2.88562 10.219 3.33333 9.66675 3.33333H6.33341C5.78113 3.33333 5.33341 2.88562 5.33341 2.33333V2Z" fill="white"/>
    <path fill-rule="evenodd" clip-rule="evenodd" d="M8.66667 1.33317L9.5 1.33317C9.77614 1.33317 10 1.55703 10 1.83317V2.1665C10 2.44265 9.77614 2.6665 9.5 2.6665H6.5C6.22386 2.6665 6 2.44265 6 2.1665V1.83317C6 1.55703 6.22386 1.33317 6.5 1.33317L7.33333 1.33317C7.33333 0.964981 7.63181 0.666504 8 0.666504C8.36819 0.666504 8.66667 0.964981 8.66667 1.33317Z" fill="white"/>
    <rect opacity="0.3" x="6.66675" y="6" width="4.66667" height="1.33333" rx="0.666667" fill="white"/>
    <rect opacity="0.3" x="4.66675" y="6" width="1.33333" height="1.33333" rx="0.666667" fill="white"/>
    <rect opacity="0.3" x="4.66675" y="8.6665" width="1.33333" height="1.33333" rx="0.666667" fill="white"/>
    <rect opacity="0.3" x="6.66675" y="8.6665" width="4.66667" height="1.33333" rx="0.666667" fill="white"/>
    <rect opacity="0.3" x="4.66675" y="11.3335" width="1.33333" height="1.33333" rx="0.666667" fill="white"/>
    <rect opacity="0.3" x="6.66675" y="11.3335" width="4.66667" height="1.33333" rx="0.666667" fill="white"/>
</svg>