<svg width="14" height="14" viewBox="0 0 14 14" fill="none" xmlns="http://www.w3.org/2000/svg">
    <path opacity="0.3" fill-rule="evenodd" clip-rule="evenodd" d="M11.0833 9.33333L12.25 9.33333V7C12.25 4.10051 9.8995 1.75 7 1.75C4.1005 1.75 1.75 4.10051 1.75 7V9.33333L2.91667 9.33333V7C2.91667 4.74484 4.74484 2.91667 7 2.91667C9.25516 2.91667 11.0833 4.74484 11.0833 7V9.33333Z" fill="#1890FF"/>
    <path fill-rule="evenodd" clip-rule="evenodd" d="M3.20833 8.16666C2.40292 8.16666 1.75 8.81957 1.75 9.62499V10.7917C1.75 11.5971 2.40292 12.25 3.20833 12.25C4.01375 12.25 4.66667 11.5971 4.66667 10.7917V9.62499C4.66667 8.81957 4.01375 8.16666 3.20833 8.16666ZM10.7917 8.16666C9.98625 8.16666 9.33333 8.81957 9.33333 9.62499V10.7917C9.33333 11.5971 9.98625 12.25 10.7917 12.25C11.5971 12.25 12.25 11.5971 12.25 10.7917V9.62499C12.25 8.81957 11.5971 8.16666 10.7917 8.16666Z" fill="#1890FF"/>
</svg>