<svg width="14" height="14" viewBox="0 0 14 14" fill="none" xmlns="http://www.w3.org/2000/svg">
    <path opacity="0.3" fill-rule="evenodd" clip-rule="evenodd" d="M11.0833 9.33333L12.25 9.33333V7C12.25 4.10051 9.8995 1.75 7 1.75C4.1005 1.75 1.75 4.10051 1.75 7V9.33333L2.91667 9.33333V7C2.91667 4.74484 4.74484 2.91667 7 2.91667C9.25516 2.91667 11.0833 4.74484 11.0833 7V9.33333Z" fill="black"/>
    <path fill-rule="evenodd" clip-rule="evenodd" d="M3.5 8C2.67157 8 2 8.67157 2 9.5V10.5C2 11.3284 2.67157 12 3.5 12C4.32843 12 5 11.3284 5 10.5V9.5C5 8.67157 4.32843 8 3.5 8ZM10.5 8C9.67157 8 9 8.67157 9 9.5V10.5C9 11.3284 9.67157 12 10.5 12C11.3284 12 12 11.3284 12 10.5V9.5C12 8.67157 11.3284 8 10.5 8Z" fill="black"/>
</svg>