<svg width="14" height="14" viewBox="0 0 14 14" fill="none" xmlns="http://www.w3.org/2000/svg">
    <path fill-rule="evenodd" clip-rule="evenodd" d="M6.99992 10.5L4.61736 11.7526C4.3322 11.9025 3.9795 11.7929 3.82959 11.5077C3.76989 11.3942 3.74929 11.2641 3.77097 11.1377L4.226 8.48464L2.29847 6.60577C2.06778 6.38089 2.06306 6.01158 2.28793 5.78088C2.37748 5.68901 2.49481 5.62923 2.62177 5.61078L5.28554 5.22371L6.47682 2.80992C6.6194 2.52102 6.96918 2.40241 7.25808 2.54499C7.37312 2.60176 7.46624 2.69488 7.52301 2.80992L8.71429 5.22371L11.3781 5.61078C11.6969 5.65711 11.9178 5.95312 11.8715 6.27193C11.853 6.39889 11.7932 6.51622 11.7014 6.60577L9.77383 8.48464L10.2289 11.1377C10.2833 11.4552 10.0701 11.7567 9.75253 11.8112C9.62609 11.8329 9.49602 11.8123 9.38247 11.7526L6.99992 10.5Z" fill="#40A9FF"/>
</svg>