<svg xmlns="http://www.w3.org/2000/svg" xmlns:xlink="http://www.w3.org/1999/xlink" width="203" height="163" viewBox="0 0 203 163"><defs><linearGradient id="a" x1="0.258" y1="0.925" x2="0.897" y2="-0.038" gradientUnits="objectBoundingBox"><stop offset="0" stop-color="#573e7a"/><stop offset="1" stop-color="#3b4a95"/></linearGradient><clipPath id="c"><path d="M3.563,0h156.79a3.526,3.526,0,0,1,3.563,3.488v102.3a3.526,3.526,0,0,1-3.563,3.488H3.563A3.526,3.526,0,0,1,0,105.79V3.488A3.526,3.526,0,0,1,3.563,0Z" transform="translate(0 0)" fill="url(#a)"/></clipPath><linearGradient id="f" x1="0.258" y1="0.925" x2="0.897" y2="-0.038" gradientUnits="objectBoundingBox"><stop offset="0" stop-color="#805ab3"/><stop offset="1" stop-color="#4e61c0"/></linearGradient><linearGradient id="h" x1="0.704" y1="-0.081" x2="0.215" y2="0.926" gradientUnits="objectBoundingBox"><stop offset="0" stop-color="#39abc5"/><stop offset="1" stop-color="#a8eb9d"/></linearGradient><linearGradient id="i" x1="0.678" x2="0.067" y2="1" gradientUnits="objectBoundingBox"><stop offset="0" stop-color="#ffb782"/><stop offset="1" stop-color="#eb4878"/></linearGradient><linearGradient id="j" x1="0.678" x2="0.067" y2="1" gradientUnits="objectBoundingBox"><stop offset="0" stop-color="#fffbf9"/><stop offset="1" stop-color="#ffebf1"/></linearGradient><linearGradient id="l" x1="1.11" y1="-1.122" x2="0.383" y2="1.211" gradientUnits="objectBoundingBox"><stop offset="0" stop-color="#ffcfaa"/><stop offset="1" stop-color="#fa6eb9"/></linearGradient><linearGradient id="m" x1="0.822" y1="0.329" x2="0.294" y2="1.077" gradientUnits="objectBoundingBox"><stop offset="0" stop-color="#fff"/><stop offset="1" stop-color="#c2e7f9"/></linearGradient><linearGradient id="n" x1="1" y1="-0.025" x2="0.159" y2="1" gradientUnits="objectBoundingBox"><stop offset="0" stop-color="#37cedb"/><stop offset="1" stop-color="#3488ed"/></linearGradient><linearGradient id="o" x1="0.849" y1="0.26" x2="0.134" y2="1" gradientUnits="objectBoundingBox"><stop offset="0" stop-color="#e6aaff"/><stop offset="1" stop-color="#3488ed"/></linearGradient><linearGradient id="p" x1="1" y1="-0.29" x2="0.067" y2="1" gradientUnits="objectBoundingBox"><stop offset="0" stop-color="#ffb782"/><stop offset="1" stop-color="#ff739c"/></linearGradient></defs><g transform="translate(-822.5 -267)"><g transform="translate(836.843 296.368)"><g transform="translate(0 0)"><path d="M3.563,0h156.79a3.526,3.526,0,0,1,3.563,3.488v102.3a3.526,3.526,0,0,1-3.563,3.488H3.563A3.526,3.526,0,0,1,0,105.79V3.488A3.526,3.526,0,0,1,3.563,0Z" transform="translate(0 0)" fill="url(#a)"/><g clip-path="url(#c)"><path d="M0,0H26.731V97.192H3.487A3.435,3.435,0,0,1,0,93.811Z" transform="translate(0 9.065)" fill="url(#a)"/><path d="M0,4.784A4.791,4.791,0,1,1,4.791,9.568,4.788,4.788,0,0,1,0,4.784Z" transform="translate(7.565 15.611)" fill="#fff"/><path d="M3.454,0H155.419a3.482,3.482,0,0,1,3.454,3.509V9.065H0V3.509A3.482,3.482,0,0,1,3.454,0Z" transform="translate(0 -0.504)" fill="url(#a)"/><ellipse cx="1.513" cy="1.511" rx="1.513" ry="1.511" transform="translate(5.044 3.022)" fill="#f3757c"/><ellipse cx="1.513" cy="1.511" rx="1.513" ry="1.511" transform="translate(9.078 3.022)" fill="#c1a4ff"/><ellipse cx="1.513" cy="1.511" rx="1.513" ry="1.511" transform="translate(13.618 3.022)" fill="#85cff3"/></g></g><g transform="translate(40.416 29.683)"><g transform="translate(0 0)"><path d="M2.5,0H42.448a2.482,2.482,0,0,1,2.5,2.466V27.123a2.482,2.482,0,0,1-2.5,2.466H2.5A2.482,2.482,0,0,1,0,27.123V2.466A2.482,2.482,0,0,1,2.5,0Z" transform="translate(0 2.466)" fill="#373a5b" opacity="0.1"/><path d="M2.5,0H42.448a2.482,2.482,0,0,1,2.5,2.466V27.123a2.482,2.482,0,0,1-2.5,2.466H2.5A2.482,2.482,0,0,1,0,27.123V2.466A2.482,2.482,0,0,1,2.5,0Z" transform="translate(0 0)" fill="url(#f)"/><g transform="translate(34.045 4.465)"><path d="M0,3.075A3.107,3.107,0,0,1,3.137,0,3.107,3.107,0,0,1,6.275,3.075,3.107,3.107,0,0,1,3.137,6.15,3.107,3.107,0,0,1,0,3.075Z" transform="translate(0 0)" fill="#fb8fb4"/></g></g></g><g transform="translate(38.93 67.616)"><path d="M2.317,0H57.1A2.164,2.164,0,0,1,59.42,1.968V31.5A2.164,2.164,0,0,1,57.1,33.466H2.317A2.164,2.164,0,0,1,0,31.5V1.968A2.164,2.164,0,0,1,2.317,0Z" transform="translate(0)" fill="url(#f)"/><path d="M1.542,0H19.28a1.551,1.551,0,0,1,1.542,1.558V7.792A1.551,1.551,0,0,1,19.28,9.351H1.542A1.551,1.551,0,0,1,0,7.792V1.558A1.551,1.551,0,0,1,1.542,0Z" transform="translate(34.027 8.367)" fill="#373a5b" opacity="0.1"/><path d="M1.542,0H19.28a1.551,1.551,0,0,1,1.542,1.558V7.792A1.551,1.551,0,0,1,19.28,9.351H1.542A1.551,1.551,0,0,1,0,7.792V1.558A1.551,1.551,0,0,1,1.542,0Z" transform="translate(34.027 6.398)" fill="#89d9a8"/><path d="M1.542,0H19.28a1.551,1.551,0,0,1,1.542,1.558V7.792A1.551,1.551,0,0,1,19.28,9.351H1.542A1.551,1.551,0,0,1,0,7.792V1.558A1.551,1.551,0,0,1,1.542,0Z" transform="translate(34.027 20.178)" fill="#fff" opacity="0.2"/></g></g><g transform="translate(984.47 345.397)"><g transform="translate(0 0)"><circle cx="20.5" cy="20.5" r="20.5" transform="translate(0.03 -0.397)" fill="url(#h)"/><path d="M2.361,16.924l1.806-5.815H1.245a1.242,1.242,0,0,1-1.216-1.5L1.883.98A1.244,1.244,0,0,1,3.1,0H9.068A1.241,1.241,0,0,1,10.2,1.764L8.321,5.788l3.96,1.173a1.239,1.239,0,0,1,.564,2.026l-8.376,9.14a1.209,1.209,0,0,1-.9.411A1.244,1.244,0,0,1,2.361,16.924Z" transform="translate(14.045 11.367)" fill="#fff"/></g><path d="M0,0A5.4,5.4,0,0,0,3.091,1.483,6.122,6.122,0,0,0,6.342,0S4.8,2.116,4.8,3.188,6.342,6.342,6.342,6.342A6.047,6.047,0,0,0,3.081,4.9,5.237,5.237,0,0,0,0,6.342,6.037,6.037,0,0,0,1.487,3.087,5.286,5.286,0,0,0,0,0Z" transform="translate(27.799 4.05) rotate(45)" fill="#fff"/><path d="M0,0A2.9,2.9,0,0,0,1.658.8,3.284,3.284,0,0,0,3.4,0a4.651,4.651,0,0,0-.829,1.711A4.528,4.528,0,0,0,3.4,3.4a3.244,3.244,0,0,0-1.749-.772A2.81,2.81,0,0,0,0,3.4,3.239,3.239,0,0,0,.8,1.656,2.836,2.836,0,0,0,0,0Z" transform="translate(11.834 24.061) rotate(45)" fill="#fff"/></g><g transform="translate(881.667 267)"><circle cx="20.5" cy="20.5" r="20.5" transform="translate(-0.167)" fill="url(#i)"/><g transform="translate(11.237 14.364)"><path d="M1.452,0H17.136a1.416,1.416,0,0,1,1.452,1.378V11.3a1.416,1.416,0,0,1-1.452,1.378H1.452A1.416,1.416,0,0,1,0,11.3V1.378A1.416,1.416,0,0,1,1.452,0Z" transform="translate(0 0)" fill="url(#j)"/><path d="M.805,1.182A.683.683,0,0,1,1.272,0h15.1a.683.683,0,0,1,.46,1.188L9.752,7.64A1.539,1.539,0,0,1,7.7,7.628Z" transform="translate(0.459 0)" fill="url(#j)"/></g><path d="M0,0A4.771,4.771,0,0,0,2.733,1.311,5.413,5.413,0,0,0,5.608,0S4.241,1.871,4.241,2.819,5.608,5.608,5.608,5.608A5.347,5.347,0,0,0,2.724,4.336,4.631,4.631,0,0,0,0,5.608,5.338,5.338,0,0,0,1.315,2.729,4.674,4.674,0,0,0,0,0Z" transform="translate(10.257 8.627) rotate(45)" fill="#fff"/><path d="M0,0A2.56,2.56,0,0,0,1.466.7,2.9,2.9,0,0,0,3.008,0a4.112,4.112,0,0,0-.733,1.512,4,4,0,0,0,.733,1.5,2.869,2.869,0,0,0-1.547-.682A2.484,2.484,0,0,0,0,3.008,2.864,2.864,0,0,0,.705,1.464,2.508,2.508,0,0,0,0,0Z" transform="translate(34.301 20.705) rotate(45)" fill="#fff"/></g><g transform="translate(965.241 284.011)"><g transform="translate(0 0)"><ellipse cx="20" cy="20.5" rx="20" ry="20.5" transform="translate(0.259 -0.011)" fill="url(#l)"/><g transform="translate(11.702 12.208)" opacity="0.848"><path d="M2.109,0H16.168a2.109,2.109,0,0,1,2.109,2.109V16.168a2.109,2.109,0,0,1-2.109,2.109H2.109A2.109,2.109,0,0,1,0,16.168V2.109A2.109,2.109,0,0,1,2.109,0Z" transform="translate(0 0)" fill="url(#m)"/></g></g><path d="M0,0A5.4,5.4,0,0,0,3.091,1.483,6.122,6.122,0,0,0,6.342,0S4.8,2.116,4.8,3.188,6.342,6.342,6.342,6.342A6.047,6.047,0,0,0,3.081,4.9,5.237,5.237,0,0,0,0,6.342,6.037,6.037,0,0,0,1.487,3.087,5.286,5.286,0,0,0,0,0Z" transform="translate(31.352 5.983) rotate(45)" fill="#fff"/><path d="M0,0A2.9,2.9,0,0,0,1.658.8,3.284,3.284,0,0,0,3.4,0a4.651,4.651,0,0,0-.829,1.711A4.528,4.528,0,0,0,3.4,3.4a3.244,3.244,0,0,0-1.749-.772A2.81,2.81,0,0,0,0,3.4,3.239,3.239,0,0,0,.8,1.656,2.836,2.836,0,0,0,0,0Z" transform="translate(10.119 23.979) rotate(45)" fill="#fff"/></g><g transform="translate(823.979 326.907)"><circle cx="20.5" cy="20.5" r="20.5" transform="translate(-0.479 0.093)" fill="url(#n)"/><path d="M0,0A4.771,4.771,0,0,0,2.733,1.311,5.413,5.413,0,0,0,5.608,0S4.241,1.871,4.241,2.819,5.608,5.608,5.608,5.608A5.347,5.347,0,0,0,2.724,4.336,4.631,4.631,0,0,0,0,5.608,5.338,5.338,0,0,0,1.315,2.729,4.674,4.674,0,0,0,0,0Z" transform="translate(31.113 5.114) rotate(45)" fill="#fff"/><path d="M0,0A2.56,2.56,0,0,0,1.466.7,2.9,2.9,0,0,0,3.008,0a4.112,4.112,0,0,0-.733,1.512,4,4,0,0,0,.733,1.5,2.869,2.869,0,0,0-1.547-.682A2.484,2.484,0,0,0,0,3.008,2.864,2.864,0,0,0,.705,1.464,2.508,2.508,0,0,0,0,0Z" transform="translate(32.526 13.319) rotate(45)" fill="#fff"/><g transform="translate(10.671 10.98)"><path d="M3.882,0H15.529a3.894,3.894,0,0,1,3.882,3.906v8.3a3.894,3.894,0,0,1-3.882,3.906H4.915L1.572,18.77a.967.967,0,0,1-1.363-.161A.98.98,0,0,1,0,18V3.906A3.894,3.894,0,0,1,3.882,0Z" transform="translate(0)" fill="#fff"/></g></g><g transform="translate(931.959 389.032)"><circle cx="20.5" cy="20.5" r="20.5" transform="translate(-0.459 -0.032)" fill="url(#o)"/><path d="M3.092,5.542a5.448,5.448,0,0,0,.9,5.336q1.844,2.1,5.953,2.3l.022.008.368-1.508a1.078,1.078,0,0,1,.887-.793l2.737-.443a1.1,1.1,0,0,1,1.261.809l.591,2.606a1.03,1.03,0,0,1-.605,1.163l.026.009q-7.71,2.458-12.379-2.586T1.163.571l0,.009A1.108,1.108,0,0,1,2.153,0a1.159,1.159,0,0,1,.206.019l3.02.547a1.048,1.048,0,0,1,.875,1.221q-.009.043-.021.085L5.481,4.42a1.075,1.075,0,0,1-.784.729l-1.6.393Z" transform="translate(12.392 12.795)" fill="#fff"/><path d="M0,0A5.666,5.666,0,0,0,3.245,1.557,6.428,6.428,0,0,0,6.659,0S5.036,2.222,5.036,3.348,6.659,6.659,6.659,6.659a6.349,6.349,0,0,0-3.424-1.51A5.5,5.5,0,0,0,0,6.659,6.339,6.339,0,0,0,1.561,3.241,5.551,5.551,0,0,0,0,0Z" transform="translate(25.529 7.906) rotate(45)" fill="#fff"/><path d="M0,0A3.04,3.04,0,0,0,1.741.835,3.449,3.449,0,0,0,3.573,0,4.883,4.883,0,0,0,2.7,1.8a4.754,4.754,0,0,0,.871,1.776,3.406,3.406,0,0,0-1.837-.81A2.95,2.95,0,0,0,0,3.573,3.4,3.4,0,0,0,.838,1.739,2.978,2.978,0,0,0,0,0Z" transform="translate(32.055 19.175) rotate(45)" fill="#fff"/></g><g transform="translate(822.5 391.304)"><path d="M4.48,0H79.527a4.484,4.484,0,0,1,4.48,4.488V26.929a4.484,4.484,0,0,1-4.48,4.488H4.48A4.484,4.484,0,0,1,0,26.929V4.488A4.484,4.484,0,0,1,4.48,0Z" transform="translate(0 0)" fill="#fff"/><ellipse cx="7" cy="7.5" rx="7" ry="7.5" transform="translate(10 8.696)" fill="#ff769a" opacity="0.1"/><path d="M0,2A2,2,0,1,1,2,4,2,2,0,0,1,0,2Z" transform="translate(16 12.696)" fill="#ff769a"/></g><g transform="translate(824.549 270.415)"><path d="M2.732,0h45.76a2.732,2.732,0,0,1,2.732,2.732v13.66a2.732,2.732,0,0,1-2.732,2.732H2.732A2.732,2.732,0,0,1,0,16.392V2.732A2.732,2.732,0,0,1,2.732,0Z" transform="translate(0 0)" fill="#fff"/><g transform="translate(31.417 4.147)"><path d="M12.109,9.165V1.421a1.421,1.421,0,0,1,2.842,0V9.165a1.421,1.421,0,0,1-2.842,0Zm-4.036,0V1.421a1.421,1.421,0,0,1,2.842,0V9.165a1.421,1.421,0,0,1-2.842,0Zm-4.036,0V1.421a1.421,1.421,0,0,1,2.842,0V9.165a1.421,1.421,0,0,1-2.842,0ZM0,9.165V1.421a1.421,1.421,0,0,1,2.842,0V9.165A1.421,1.421,0,0,1,0,9.165Z" transform="translate(0 0)" fill="#ff9190" opacity="0.1"/><path d="M13.159,7.5a1.049,1.049,0,1,1,0-2.1H13.9a1.049,1.049,0,1,1,0,2.1ZM8.073,6.074V3.292a1.421,1.421,0,0,1,2.842,0V6.074a1.421,1.421,0,1,1-2.842,0Zm-4.036,0V1.421a1.421,1.421,0,0,1,2.842,0V6.074a1.421,1.421,0,0,1-2.842,0ZM0,6.074V4.946a1.421,1.421,0,1,1,2.842,0V6.074A1.421,1.421,0,1,1,0,6.074Z" transform="translate(0 3.091)" fill="url(#p)"/></g></g></g></svg>