<svg width="14" height="14" viewBox="0 0 14 14" fill="none" xmlns="http://www.w3.org/2000/svg">
  <path fill-rule="evenodd" clip-rule="evenodd" d="M1.15471 1.62611C0.764185 2.01664 0.764185 2.6498 1.15471 3.04033L5.16165 7.04727L1.15471 11.0542C0.764186 11.4447 0.764187 12.0779 1.15471 12.4684L1.62612 12.9398C2.01664 13.3304 2.6498 13.3304 3.04033 12.9398L7.04727 8.93289L11.0542 12.9398C11.4447 13.3303 12.0779 13.3303 12.4684 12.9398L12.9398 12.4684C13.3303 12.0779 13.3303 11.4447 12.9398 11.0542L8.93289 7.04727L12.9398 3.04034C13.3303 2.64981 13.3303 2.01665 12.9398 1.62612L12.4684 1.15472C12.0779 0.764195 11.4447 0.764195 11.0542 1.15472L7.04727 5.16165L3.04033 1.15471C2.6498 0.764185 2.01664 0.764185 1.62611 1.15471L1.15471 1.62611Z" fill="black"/>
</svg>